%FSDAX23Y23*%
%MOIN*%
%SFA1B1*%

%IPPOS*%
%ADD36C,0.002000*%
%ADD37C,0.003000*%
%LNbuoynode_pcb-1*%
%LPD*%
G54D36*
X-00300Y00307D02*
Y00323D01*
X-00284*
Y00307*
X-00300*
X-00400D02*
Y00323D01*
X-00384*
Y00307*
X-00400*
X-00500D02*
Y00323D01*
X-00484*
Y00307*
X-00500*
X-00600D02*
Y00323D01*
X-00584*
Y00307*
X-00600*
X-00700D02*
Y00323D01*
X-00684*
Y00307*
X-00700*
X02526Y-01671D02*
Y-01655D01*
X02542*
Y-01671*
X02526*
Y-01571D02*
Y-01555D01*
X02542*
Y-01571*
X02526*
Y-01471D02*
Y-01455D01*
X02542*
Y-01471*
X02526*
Y-01371D02*
Y-01355D01*
X02542*
Y-01371*
X02526*
Y-01271D02*
Y-01255D01*
X02542*
Y-01271*
X02526*
Y-01171D02*
Y-01155D01*
X02542*
Y-01171*
X02526*
Y-01071D02*
Y-01055D01*
X02542*
Y-01071*
X02526*
Y-00971D02*
Y-00955D01*
X02542*
Y-00971*
X02526*
X01626Y-01671D02*
Y-01655D01*
X01642*
Y-01671*
X01626*
Y-01571D02*
Y-01555D01*
X01642*
Y-01571*
X01626*
Y-01471D02*
Y-01455D01*
X01642*
Y-01471*
X01626*
Y-01371D02*
Y-01355D01*
X01642*
Y-01371*
X01626*
Y-01271D02*
Y-01255D01*
X01642*
Y-01271*
X01626*
Y-01171D02*
Y-01155D01*
X01642*
Y-01171*
X01626*
Y-01071D02*
Y-01055D01*
X01642*
Y-01071*
X01626*
X-01186Y00726D02*
Y00742D01*
X-01170*
Y00726*
X-01186*
Y00826D02*
Y00842D01*
X-01170*
Y00826*
X-01186*
Y00926D02*
Y00942D01*
X-01170*
Y00926*
X-01186*
Y01026D02*
Y01042D01*
X-01170*
Y01026*
X-01186*
Y01126D02*
Y01142D01*
X-01170*
Y01126*
X-01186*
Y01226D02*
Y01242D01*
X-01170*
Y01226*
X-01186*
Y01326D02*
Y01342D01*
X-01170*
Y01326*
X-01186*
Y01426D02*
Y01442D01*
X-01170*
Y01426*
X-01186*
Y01526D02*
Y01542D01*
X-01170*
Y01526*
X-01186*
Y01626D02*
Y01642D01*
X-01170*
Y01626*
X-01186*
Y01726D02*
Y01742D01*
X-01170*
Y01726*
X-01186*
Y01826D02*
Y01842D01*
X-01170*
Y01826*
X-01186*
Y01926D02*
Y01942D01*
X-01170*
Y01926*
X-01186*
Y02026D02*
Y02042D01*
X-01170*
Y02026*
X-01186*
Y02126D02*
Y02142D01*
X-01170*
Y02126*
X-01186*
Y02226D02*
Y02242D01*
X-01170*
Y02226*
X-01186*
Y02326D02*
Y02342D01*
X-01170*
Y02326*
X-01186*
Y02426D02*
Y02442D01*
X-01170*
Y02426*
X-01186*
Y02526D02*
Y02542D01*
X-01170*
Y02526*
X-01186*
X-01286Y00726D02*
Y00742D01*
X-01270*
Y00726*
X-01286*
Y00826D02*
Y00842D01*
X-01270*
Y00826*
X-01286*
Y00926D02*
Y00942D01*
X-01270*
Y00926*
X-01286*
Y01026D02*
Y01042D01*
X-01270*
Y01026*
X-01286*
Y01126D02*
Y01142D01*
X-01270*
Y01126*
X-01286*
Y01226D02*
Y01242D01*
X-01270*
Y01226*
X-01286*
Y01326D02*
Y01342D01*
X-01270*
Y01326*
X-01286*
Y01426D02*
Y01442D01*
X-01270*
Y01426*
X-01286*
Y01526D02*
Y01542D01*
X-01270*
Y01526*
X-01286*
Y01626D02*
Y01642D01*
X-01270*
Y01626*
X-01286*
Y01726D02*
Y01742D01*
X-01270*
Y01726*
X-01286*
Y01826D02*
Y01842D01*
X-01270*
Y01826*
X-01286*
Y01926D02*
Y01942D01*
X-01270*
Y01926*
X-01286*
Y02026D02*
Y02042D01*
X-01270*
Y02026*
X-01286*
Y02126D02*
Y02142D01*
X-01270*
Y02126*
X-01286*
Y02226D02*
Y02242D01*
X-01270*
Y02226*
X-01286*
Y02326D02*
Y02342D01*
X-01270*
Y02326*
X-01286*
Y02426D02*
Y02442D01*
X-01270*
Y02426*
X-01286*
Y02526D02*
Y02542D01*
X-01270*
Y02526*
X-01286*
X01214Y02126D02*
Y02142D01*
X01230*
Y02126*
X01214*
Y01826D02*
Y01842D01*
X01230*
Y01826*
X01214*
Y01526D02*
Y01542D01*
X01230*
Y01526*
X01214*
Y01226D02*
Y01242D01*
X01230*
Y01226*
X01214*
Y02526D02*
Y02542D01*
X01230*
Y02526*
X01214*
Y02426D02*
Y02442D01*
X01230*
Y02426*
X01214*
Y02326D02*
Y02342D01*
X01230*
Y02326*
X01214*
Y02226D02*
Y02242D01*
X01230*
Y02226*
X01214*
Y02026D02*
Y02042D01*
X01230*
Y02026*
X01214*
Y01926D02*
Y01942D01*
X01230*
Y01926*
X01214*
Y01726D02*
Y01742D01*
X01230*
Y01726*
X01214*
Y01626D02*
Y01642D01*
X01230*
Y01626*
X01214*
Y01426D02*
Y01442D01*
X01230*
Y01426*
X01214*
Y01326D02*
Y01342D01*
X01230*
Y01326*
X01214*
Y01126D02*
Y01142D01*
X01230*
Y01126*
X01214*
Y01026D02*
Y01042D01*
X01230*
Y01026*
X01214*
Y00926D02*
Y00942D01*
X01230*
Y00926*
X01214*
Y00826D02*
Y00842D01*
X01230*
Y00826*
X01214*
Y00726D02*
Y00742D01*
X01230*
Y00726*
X01214*
X01114Y02126D02*
Y02142D01*
X01130*
Y02126*
X01114*
Y01826D02*
Y01842D01*
X01130*
Y01826*
X01114*
Y01526D02*
Y01542D01*
X01130*
Y01526*
X01114*
Y01226D02*
Y01242D01*
X01130*
Y01226*
X01114*
Y02526D02*
Y02542D01*
X01130*
Y02526*
X01114*
Y02426D02*
Y02442D01*
X01130*
Y02426*
X01114*
Y02326D02*
Y02342D01*
X01130*
Y02326*
X01114*
Y02226D02*
Y02242D01*
X01130*
Y02226*
X01114*
Y02026D02*
Y02042D01*
X01130*
Y02026*
X01114*
Y01926D02*
Y01942D01*
X01130*
Y01926*
X01114*
Y01726D02*
Y01742D01*
X01130*
Y01726*
X01114*
Y01626D02*
Y01642D01*
X01130*
Y01626*
X01114*
Y01426D02*
Y01442D01*
X01130*
Y01426*
X01114*
Y01326D02*
Y01342D01*
X01130*
Y01326*
X01114*
Y01126D02*
Y01142D01*
X01130*
Y01126*
X01114*
Y01026D02*
Y01042D01*
X01130*
Y01026*
X01114*
Y00926D02*
Y00942D01*
X01130*
Y00926*
X01114*
Y00826D02*
Y00842D01*
X01130*
Y00826*
X01114*
Y00726D02*
Y00742D01*
X01130*
Y00726*
X01114*
X-02331Y-01132D02*
Y-01116D01*
X-02315*
Y-01132*
X-02331*
Y-01032D02*
Y-01016D01*
X-02315*
Y-01032*
X-02331*
Y-00932D02*
Y-00916D01*
X-02315*
Y-00932*
X-02331*
X-01189Y00327D02*
Y00343D01*
X-01173*
Y00327*
X-01189*
Y00227D02*
Y00243D01*
X-01173*
Y00227*
X-01189*
Y00127D02*
Y00143D01*
X-01173*
Y00127*
X-01189*
X-01889Y00327D02*
Y00343D01*
X-01873*
Y00327*
X-01889*
Y00227D02*
Y00243D01*
X-01873*
Y00227*
X-01889*
Y00127D02*
Y00143D01*
X-01873*
Y00127*
X-01889*
X-02252Y-00441D02*
Y-00425D01*
X-02236*
Y-00441*
X-02252*
X-02452D02*
Y-00425D01*
X-02436*
Y-00441*
X-02452*
X02413Y-00461D02*
Y-00445D01*
X02429*
Y-00461*
X02413*
X02213D02*
Y-00445D01*
X02229*
Y-00461*
X02213*
X00976Y00307D02*
Y00323D01*
X00992*
Y00307*
X00976*
X00876D02*
Y00323D01*
X00892*
Y00307*
X00876*
X00776D02*
Y00323D01*
X00792*
Y00307*
X00776*
X00676D02*
Y00323D01*
X00692*
Y00307*
X00676*
X00576D02*
Y00323D01*
X00592*
Y00307*
X00576*
X-02549Y-00736D02*
Y-00720D01*
X-02533*
Y-00736*
X-02549*
X-02449D02*
Y-00720D01*
X-02433*
Y-00736*
X-02449*
X-02349D02*
Y-00720D01*
X-02333*
Y-00736*
X-02349*
X-02165Y-00008D02*
X-02173Y00008D01*
X-02157*
X-02165Y-00008*
X00000Y03161D02*
X-00008Y03177D01*
X00008*
X00000Y03161*
X02165Y-00008D02*
X02157Y00008D01*
X02173*
X02165Y-00008*
X-02323Y01488D02*
X-02331Y01504D01*
X-02315*
X-02323Y01488*
X02323D02*
X02315Y01504D01*
X02331*
X02323Y01488*
X-02539Y-01073D02*
X-02535Y-01069D01*
X-02531*
X-02535Y-01065*
X-02531Y-01061*
X-02535*
X-02539Y-01057*
X-02543Y-01061*
X-02547*
X-02543Y-01065*
X-02547Y-01069*
X-02543*
X-02539Y-01073*
Y-00973D02*
X-02535Y-00969D01*
X-02531*
X-02535Y-00965*
X-02531Y-00961*
X-02535*
X-02539Y-00957*
X-02543Y-00961*
X-02547*
X-02543Y-00965*
X-02547Y-00969*
X-02543*
X-02539Y-00973*
X-02106Y-01071D02*
X-02102Y-01067D01*
X-02098*
X-02102Y-01063*
X-02098Y-01059*
X-02102*
X-02106Y-01055*
X-02110Y-01059*
X-02114*
X-02110Y-01063*
X-02114Y-01067*
X-02110*
X-02106Y-01071*
Y-00971D02*
X-02102Y-00967D01*
X-02098*
X-02102Y-00963*
X-02098Y-00959*
X-02102*
X-02106Y-00955*
X-02110Y-00959*
X-02114*
X-02110Y-00963*
X-02114Y-00967*
X-02110*
X-02106Y-00971*
X-02114Y-00797D02*
Y-00781D01*
X-02098*
Y-00797*
X-02114*
Y-00697D02*
Y-00681D01*
X-02098*
Y-00697*
X-02114*
X-01543Y00679D02*
X-01539Y00687D01*
X-01543Y00695*
X-01535Y00691*
X-01527Y00695*
X-01531Y00687*
X-01527Y00679*
X-01535Y00683*
X-01543Y00679*
Y00779D02*
X-01539Y00787D01*
X-01543Y00795*
X-01535Y00791*
X-01527Y00795*
X-01531Y00787*
X-01527Y00779*
X-01535Y00783*
X-01543Y00779*
Y00879D02*
X-01539Y00887D01*
X-01543Y00895*
X-01535Y00891*
X-01527Y00895*
X-01531Y00887*
X-01527Y00879*
X-01535Y00883*
X-01543Y00879*
X01354Y00055D02*
Y00051D01*
X01362*
Y00055*
X01366*
Y00063*
X01362*
Y00067*
X01354*
Y00063*
X01350*
Y00055*
X01354*
X-00398Y00468D02*
Y00464D01*
X-00390*
Y00468*
X-00386*
Y00476*
X-00390*
Y00480*
X-00398*
Y00476*
X-00402*
Y00468*
X-00398*
X01551Y-00142D02*
Y-00146D01*
X01559*
Y-00142*
X01563*
Y-00134*
X01559*
Y-00130*
X01551*
Y-00134*
X01547*
Y-00142*
X01551*
X01768Y-00693D02*
Y-00697D01*
X01776*
Y-00693*
X01780*
Y-00685*
X01776*
Y-00681*
X01768*
Y-00685*
X01764*
Y-00693*
X01768*
X01945Y-00870D02*
Y-00874D01*
X01953*
Y-00870*
X01957*
Y-00862*
X01953*
Y-00858*
X01945*
Y-00862*
X01941*
Y-00870*
X01945*
G54D37*
X-01665Y00918D02*
D01*
X-01665Y00918*
X-01665Y00919*
X-01665Y00919*
X-01665Y00920*
X-01665Y00920*
X-01665Y00921*
X-01665Y00921*
X-01666Y00922*
X-01666Y00922*
X-01666Y00923*
X-01667Y00923*
X-01667Y00923*
X-01668Y00924*
X-01668Y00924*
X-01669Y00924*
X-01669Y00925*
X-01670Y00925*
X-01670Y00925*
X-01671Y00925*
X-01671Y00925*
X-01672Y00925*
X-01672Y00925*
X-01673*
X-01673Y00925*
X-01674Y00925*
X-01674Y00925*
X-01675Y00925*
X-01675Y00925*
X-01676Y00925*
X-01677Y00924*
X-01677Y00924*
X-01677Y00924*
X-01678Y00923*
X-01678Y00923*
X-01679Y00923*
X-01679Y00922*
X-01679Y00922*
X-01680Y00921*
X-01680Y00921*
X-01680Y00920*
X-01680Y00920*
X-01680Y00919*
X-01680Y00919*
X-01680Y00918*
X-01681Y00918*
X-01680Y00917*
X-01680Y00916*
X-01680Y00916*
X-01680Y00915*
X-01680Y00915*
X-01680Y00914*
X-01680Y00914*
X-01679Y00913*
X-01679Y00913*
X-01679Y00912*
X-01678Y00912*
X-01678Y00912*
X-01677Y00911*
X-01677Y00911*
X-01677Y00911*
X-01676Y00910*
X-01675Y00910*
X-01675Y00910*
X-01674Y00910*
X-01674Y00910*
X-01673Y00910*
X-01673Y00910*
X-01672*
X-01672Y00910*
X-01671Y00910*
X-01671Y00910*
X-01670Y00910*
X-01670Y00910*
X-01669Y00910*
X-01669Y00911*
X-01668Y00911*
X-01668Y00911*
X-01667Y00912*
X-01667Y00912*
X-01666Y00912*
X-01666Y00913*
X-01666Y00913*
X-01665Y00914*
X-01665Y00914*
X-01665Y00915*
X-01665Y00915*
X-01665Y00916*
X-01665Y00916*
X-01665Y00917*
X-01665Y00918*
Y00618D02*
D01*
X-01665Y00618*
X-01665Y00619*
X-01665Y00619*
X-01665Y00620*
X-01665Y00620*
X-01665Y00621*
X-01665Y00621*
X-01666Y00622*
X-01666Y00622*
X-01666Y00623*
X-01667Y00623*
X-01667Y00623*
X-01668Y00624*
X-01668Y00624*
X-01669Y00624*
X-01669Y00625*
X-01670Y00625*
X-01670Y00625*
X-01671Y00625*
X-01671Y00625*
X-01672Y00625*
X-01672Y00625*
X-01673*
X-01673Y00625*
X-01674Y00625*
X-01674Y00625*
X-01675Y00625*
X-01675Y00625*
X-01676Y00625*
X-01677Y00624*
X-01677Y00624*
X-01677Y00624*
X-01678Y00623*
X-01678Y00623*
X-01679Y00623*
X-01679Y00622*
X-01679Y00622*
X-01680Y00621*
X-01680Y00621*
X-01680Y00620*
X-01680Y00620*
X-01680Y00619*
X-01680Y00619*
X-01680Y00618*
X-01681Y00618*
X-01680Y00617*
X-01680Y00616*
X-01680Y00616*
X-01680Y00615*
X-01680Y00615*
X-01680Y00614*
X-01680Y00614*
X-01679Y00613*
X-01679Y00613*
X-01679Y00612*
X-01678Y00612*
X-01678Y00612*
X-01677Y00611*
X-01677Y00611*
X-01677Y00611*
X-01676Y00610*
X-01675Y00610*
X-01675Y00610*
X-01674Y00610*
X-01674Y00610*
X-01673Y00610*
X-01673Y00610*
X-01672*
X-01672Y00610*
X-01671Y00610*
X-01671Y00610*
X-01670Y00610*
X-01670Y00610*
X-01669Y00610*
X-01669Y00611*
X-01668Y00611*
X-01668Y00611*
X-01667Y00612*
X-01667Y00612*
X-01666Y00612*
X-01666Y00613*
X-01666Y00613*
X-01665Y00614*
X-01665Y00614*
X-01665Y00615*
X-01665Y00615*
X-01665Y00616*
X-01665Y00616*
X-01665Y00617*
X-01665Y00618*
X-00583Y01056D02*
D01*
X-00583Y01056*
X-00583Y01057*
X-00583Y01057*
X-00583Y01058*
X-00583Y01058*
X-00583Y01059*
X-00583Y01059*
X-00584Y01060*
X-00584Y01060*
X-00584Y01061*
X-00585Y01061*
X-00585Y01061*
X-00586Y01062*
X-00586Y01062*
X-00587Y01062*
X-00587Y01063*
X-00588Y01063*
X-00588Y01063*
X-00589Y01063*
X-00589Y01063*
X-00590Y01063*
X-00590Y01063*
X-00591*
X-00591Y01063*
X-00592Y01063*
X-00592Y01063*
X-00593Y01063*
X-00593Y01063*
X-00594Y01063*
X-00595Y01062*
X-00595Y01062*
X-00595Y01062*
X-00596Y01061*
X-00596Y01061*
X-00597Y01061*
X-00597Y01060*
X-00597Y01060*
X-00598Y01059*
X-00598Y01059*
X-00598Y01058*
X-00598Y01058*
X-00598Y01057*
X-00598Y01057*
X-00598Y01056*
X-00599Y01056*
X-00598Y01055*
X-00598Y01054*
X-00598Y01054*
X-00598Y01053*
X-00598Y01053*
X-00598Y01052*
X-00598Y01052*
X-00597Y01051*
X-00597Y01051*
X-00597Y01050*
X-00596Y01050*
X-00596Y01050*
X-00595Y01049*
X-00595Y01049*
X-00595Y01049*
X-00594Y01048*
X-00593Y01048*
X-00593Y01048*
X-00592Y01048*
X-00592Y01048*
X-00591Y01048*
X-00591Y01048*
X-00590*
X-00590Y01048*
X-00589Y01048*
X-00589Y01048*
X-00588Y01048*
X-00588Y01048*
X-00587Y01048*
X-00587Y01049*
X-00586Y01049*
X-00586Y01049*
X-00585Y01050*
X-00585Y01050*
X-00584Y01050*
X-00584Y01051*
X-00584Y01051*
X-00583Y01052*
X-00583Y01052*
X-00583Y01053*
X-00583Y01053*
X-00583Y01054*
X-00583Y01054*
X-00583Y01055*
X-00583Y01056*
Y00756D02*
D01*
X-00583Y00756*
X-00583Y00757*
X-00583Y00757*
X-00583Y00758*
X-00583Y00758*
X-00583Y00759*
X-00583Y00759*
X-00584Y00760*
X-00584Y00760*
X-00584Y00761*
X-00585Y00761*
X-00585Y00761*
X-00586Y00762*
X-00586Y00762*
X-00587Y00762*
X-00587Y00763*
X-00588Y00763*
X-00588Y00763*
X-00589Y00763*
X-00589Y00763*
X-00590Y00763*
X-00590Y00763*
X-00591*
X-00591Y00763*
X-00592Y00763*
X-00592Y00763*
X-00593Y00763*
X-00593Y00763*
X-00594Y00763*
X-00595Y00762*
X-00595Y00762*
X-00595Y00762*
X-00596Y00761*
X-00596Y00761*
X-00597Y00761*
X-00597Y00760*
X-00597Y00760*
X-00598Y00759*
X-00598Y00759*
X-00598Y00758*
X-00598Y00758*
X-00598Y00757*
X-00598Y00757*
X-00598Y00756*
X-00599Y00756*
X-00598Y00755*
X-00598Y00754*
X-00598Y00754*
X-00598Y00753*
X-00598Y00753*
X-00598Y00752*
X-00598Y00752*
X-00597Y00751*
X-00597Y00751*
X-00597Y00750*
X-00596Y00750*
X-00596Y00750*
X-00595Y00749*
X-00595Y00749*
X-00595Y00749*
X-00594Y00748*
X-00593Y00748*
X-00593Y00748*
X-00592Y00748*
X-00592Y00748*
X-00591Y00748*
X-00591Y00748*
X-00590*
X-00590Y00748*
X-00589Y00748*
X-00589Y00748*
X-00588Y00748*
X-00588Y00748*
X-00587Y00748*
X-00587Y00749*
X-00586Y00749*
X-00586Y00749*
X-00585Y00750*
X-00585Y00750*
X-00584Y00750*
X-00584Y00751*
X-00584Y00751*
X-00583Y00752*
X-00583Y00752*
X-00583Y00753*
X-00583Y00753*
X-00583Y00754*
X-00583Y00754*
X-00583Y00755*
X-00583Y00756*
X-00760Y01056D02*
D01*
X-00760Y01056*
X-00760Y01057*
X-00760Y01057*
X-00760Y01058*
X-00760Y01058*
X-00760Y01059*
X-00760Y01059*
X-00761Y01060*
X-00761Y01060*
X-00761Y01061*
X-00762Y01061*
X-00762Y01061*
X-00763Y01062*
X-00763Y01062*
X-00764Y01062*
X-00764Y01063*
X-00765Y01063*
X-00765Y01063*
X-00766Y01063*
X-00766Y01063*
X-00767Y01063*
X-00767Y01063*
X-00768*
X-00768Y01063*
X-00769Y01063*
X-00769Y01063*
X-00770Y01063*
X-00770Y01063*
X-00771Y01063*
X-00772Y01062*
X-00772Y01062*
X-00772Y01062*
X-00773Y01061*
X-00773Y01061*
X-00774Y01061*
X-00774Y01060*
X-00774Y01060*
X-00775Y01059*
X-00775Y01059*
X-00775Y01058*
X-00775Y01058*
X-00775Y01057*
X-00775Y01057*
X-00775Y01056*
X-00776Y01056*
X-00775Y01055*
X-00775Y01054*
X-00775Y01054*
X-00775Y01053*
X-00775Y01053*
X-00775Y01052*
X-00775Y01052*
X-00774Y01051*
X-00774Y01051*
X-00774Y01050*
X-00773Y01050*
X-00773Y01050*
X-00772Y01049*
X-00772Y01049*
X-00772Y01049*
X-00771Y01048*
X-00770Y01048*
X-00770Y01048*
X-00769Y01048*
X-00769Y01048*
X-00768Y01048*
X-00768Y01048*
X-00767*
X-00767Y01048*
X-00766Y01048*
X-00766Y01048*
X-00765Y01048*
X-00765Y01048*
X-00764Y01048*
X-00764Y01049*
X-00763Y01049*
X-00763Y01049*
X-00762Y01050*
X-00762Y01050*
X-00761Y01050*
X-00761Y01051*
X-00761Y01051*
X-00760Y01052*
X-00760Y01052*
X-00760Y01053*
X-00760Y01053*
X-00760Y01054*
X-00760Y01054*
X-00760Y01055*
X-00760Y01056*
Y00756D02*
D01*
X-00760Y00756*
X-00760Y00757*
X-00760Y00757*
X-00760Y00758*
X-00760Y00758*
X-00760Y00759*
X-00760Y00759*
X-00761Y00760*
X-00761Y00760*
X-00761Y00761*
X-00762Y00761*
X-00762Y00761*
X-00763Y00762*
X-00763Y00762*
X-00764Y00762*
X-00764Y00763*
X-00765Y00763*
X-00765Y00763*
X-00766Y00763*
X-00766Y00763*
X-00767Y00763*
X-00767Y00763*
X-00768*
X-00768Y00763*
X-00769Y00763*
X-00769Y00763*
X-00770Y00763*
X-00770Y00763*
X-00771Y00763*
X-00772Y00762*
X-00772Y00762*
X-00772Y00762*
X-00773Y00761*
X-00773Y00761*
X-00774Y00761*
X-00774Y00760*
X-00774Y00760*
X-00775Y00759*
X-00775Y00759*
X-00775Y00758*
X-00775Y00758*
X-00775Y00757*
X-00775Y00757*
X-00775Y00756*
X-00776Y00756*
X-00775Y00755*
X-00775Y00754*
X-00775Y00754*
X-00775Y00753*
X-00775Y00753*
X-00775Y00752*
X-00775Y00752*
X-00774Y00751*
X-00774Y00751*
X-00774Y00750*
X-00773Y00750*
X-00773Y00750*
X-00772Y00749*
X-00772Y00749*
X-00772Y00749*
X-00771Y00748*
X-00770Y00748*
X-00770Y00748*
X-00769Y00748*
X-00769Y00748*
X-00768Y00748*
X-00768Y00748*
X-00767*
X-00767Y00748*
X-00766Y00748*
X-00766Y00748*
X-00765Y00748*
X-00765Y00748*
X-00764Y00748*
X-00764Y00749*
X-00763Y00749*
X-00763Y00749*
X-00762Y00750*
X-00762Y00750*
X-00761Y00750*
X-00761Y00751*
X-00761Y00751*
X-00760Y00752*
X-00760Y00752*
X-00760Y00753*
X-00760Y00753*
X-00760Y00754*
X-00760Y00754*
X-00760Y00755*
X-00760Y00756*
M02*