%FSDAX23Y23*%
%MOIN*%
%SFA1B1*%

%IPPOS*%
%ADD20C,0.055000*%
%ADD23R,0.053000X0.165000*%
%ADD24C,0.039000*%
%ADD25C,0.028000*%
%ADD26C,0.010000*%
%ADD27R,0.063000X0.079000*%
%ADD28O,0.063000X0.079000*%
%ADD29R,0.079000X0.063000*%
%ADD30O,0.079000X0.063000*%
%ADD31R,0.079000X0.063000*%
%ADD32O,0.079000X0.063000*%
%ADD33C,0.134000*%
%ADD34C,0.047000*%
%ADD35C,0.031000*%
%LNbuoynode_pcb-1*%
%LPD*%
G36*
X01219Y02841D02*
X01220Y02833D01*
Y02815*
X01239*
X01246Y02814*
X02656*
Y-01750*
X01399*
Y-00281*
X01398Y-00274*
Y-00039*
X-01929*
Y-00274*
X-01931Y-00281*
Y-01174*
X-02264*
X-02268Y-01171*
Y-01169*
Y-01131*
X-02323*
X-02378*
Y-01169*
Y-01171*
X-02382Y-01174*
X-02656*
Y02814*
X-01240*
X-01233Y02815*
X-01220*
Y02827*
X-01219Y02835*
Y03483*
X01219*
Y02841*
G37*
%LNbuoynode_pcb-2*%
%LPC*%
G36*
X00008Y03252D02*
X-00008D01*
X-00024Y03249*
X-00039Y03243*
X-00053Y03234*
X-00064Y03222*
X-00073Y03208*
X-00079Y03193*
X-00083Y03177*
Y03161*
X-00079Y03145*
X-00073Y03130*
X-00064Y03117*
X-00053Y03105*
X-00039Y03096*
X-00024Y03090*
X-00008Y03087*
X00008*
X00024Y03090*
X00039Y03096*
X00053Y03105*
X00064Y03117*
X00073Y03130*
X00079Y03145*
X00083Y03161*
Y03177*
X00079Y03193*
X00073Y03208*
X00064Y03222*
X00053Y03234*
X00039Y03243*
X00024Y03249*
X00008Y03252*
G37*
G36*
X01230Y02582D02*
X01214D01*
X01202Y02580*
X01190Y02575*
X01182Y02569*
X01177Y02571*
Y02581*
X01067*
Y02487*
X01177*
Y02497*
X01182Y02499*
X01190Y02493*
X01202Y02488*
X01213Y02486*
Y02481*
X01202Y02480*
X01190Y02475*
X01180Y02468*
X01175Y02461*
X01169*
X01164Y02468*
X01154Y02475*
X01142Y02480*
X01130Y02482*
X01114*
X01102Y02480*
X01090Y02475*
X01080Y02468*
X01073Y02458*
X01068Y02446*
X01067Y02434*
X01068Y02422*
X01073Y02410*
X01080Y02400*
X01090Y02393*
X01102Y02388*
X01113Y02386*
Y02381*
X01102Y02380*
X01090Y02375*
X01080Y02368*
X01073Y02358*
X01068Y02346*
X01067Y02334*
X01068Y02322*
X01073Y02310*
X01080Y02300*
X01090Y02293*
X01102Y02288*
X01113Y02286*
Y02281*
X01102Y02280*
X01090Y02275*
X01080Y02268*
X01073Y02258*
X01068Y02246*
X01067Y02234*
X01068Y02222*
X01073Y02210*
X01080Y02200*
X01090Y02193*
X01102Y02188*
X01113Y02186*
Y02181*
X01102Y02180*
X01090Y02175*
X01080Y02168*
X01073Y02158*
X01068Y02146*
Y02142*
X01122*
Y02126*
X01068*
Y02122*
X01073Y02110*
X01080Y02100*
X01090Y02093*
X01102Y02088*
X01113Y02086*
Y02081*
X01102Y02080*
X01090Y02075*
X01080Y02068*
X01073Y02058*
X01068Y02046*
X01067Y02034*
X01068Y02022*
X01073Y02010*
X01080Y02000*
X01090Y01993*
X01102Y01988*
X01113Y01986*
Y01981*
X01102Y01980*
X01090Y01975*
X01080Y01968*
X01073Y01958*
X01068Y01946*
X01067Y01934*
X01068Y01922*
X01073Y01910*
X01080Y01900*
X01090Y01893*
X01102Y01888*
X01113Y01886*
Y01881*
X01102Y01880*
X01090Y01875*
X01080Y01868*
X01073Y01858*
X01068Y01846*
X01067Y01834*
X01068Y01822*
X01073Y01810*
X01080Y01800*
X01090Y01793*
X01102Y01788*
X01113Y01786*
Y01781*
X01102Y01780*
X01090Y01775*
X01080Y01768*
X01073Y01758*
X01068Y01746*
X01067Y01734*
X01068Y01722*
X01073Y01710*
X01080Y01700*
X01090Y01693*
X01102Y01688*
X01113Y01686*
Y01681*
X01102Y01680*
X01090Y01675*
X01080Y01668*
X01073Y01658*
X01068Y01646*
X01067Y01634*
X01068Y01622*
X01073Y01610*
X01080Y01600*
X01090Y01593*
X01102Y01588*
X01113Y01586*
Y01581*
X01102Y01580*
X01090Y01575*
X01080Y01568*
X01073Y01558*
X01068Y01546*
X01067Y01534*
X01068Y01522*
X01073Y01510*
X01080Y01500*
X01090Y01493*
X01102Y01488*
X01113Y01486*
Y01481*
X01102Y01480*
X01090Y01475*
X01080Y01468*
X01073Y01458*
X01068Y01446*
X01067Y01434*
X01068Y01422*
X01073Y01410*
X01080Y01400*
X01090Y01393*
X01102Y01388*
X01113Y01386*
Y01381*
X01102Y01380*
X01090Y01375*
X01080Y01368*
X01073Y01358*
X01068Y01346*
X01067Y01334*
X01068Y01322*
X01073Y01310*
X01080Y01300*
X01090Y01293*
X01102Y01288*
X01113Y01286*
Y01281*
X01102Y01280*
X01090Y01275*
X01080Y01268*
X01073Y01258*
X01068Y01246*
X01067Y01234*
X01068Y01222*
X01073Y01210*
X01080Y01200*
X01090Y01193*
X01102Y01188*
X01113Y01186*
Y01181*
X01102Y01180*
X01090Y01175*
X01080Y01168*
X01073Y01158*
X01068Y01146*
X01067Y01134*
X01068Y01122*
X01073Y01110*
X01080Y01100*
X01090Y01093*
X01102Y01088*
X01113Y01086*
Y01081*
X01102Y01080*
X01090Y01075*
X01080Y01068*
X01073Y01058*
X01068Y01046*
X01067Y01034*
X01068Y01022*
X01073Y01010*
X01080Y01000*
X01090Y00993*
X01102Y00988*
X01113Y00986*
Y00981*
X01102Y00980*
X01090Y00975*
X01080Y00968*
X01073Y00958*
X01068Y00946*
X01067Y00934*
X01068Y00922*
X01073Y00910*
X01080Y00900*
X01090Y00893*
X01102Y00888*
X01113Y00886*
Y00881*
X01102Y00880*
X01090Y00875*
X01080Y00868*
X01073Y00858*
X01068Y00846*
X01067Y00834*
X01068Y00822*
X01073Y00810*
X01080Y00800*
X01090Y00793*
X01102Y00788*
X01113Y00786*
Y00781*
X01102Y00780*
X01090Y00775*
X01080Y00768*
X01073Y00758*
X01068Y00746*
X01067Y00734*
X01068Y00722*
X01073Y00710*
X01080Y00700*
X01090Y00693*
X01102Y00688*
X01114Y00686*
X01130*
X01142Y00688*
X01154Y00693*
X01164Y00700*
X01169Y00707*
X01175*
X01180Y00700*
X01190Y00693*
X01202Y00688*
X01214Y00686*
X01230*
X01242Y00688*
X01254Y00693*
X01264Y00700*
X01271Y00710*
X01276Y00722*
X01278Y00734*
X01276Y00746*
X01271Y00758*
X01264Y00768*
X01254Y00775*
X01242Y00780*
X01231Y00781*
Y00786*
X01242Y00788*
X01254Y00793*
X01264Y00800*
X01271Y00810*
X01276Y00822*
X01278Y00834*
X01276Y00846*
X01271Y00858*
X01264Y00868*
X01254Y00875*
X01242Y00880*
X01231Y00881*
Y00886*
X01242Y00888*
X01254Y00893*
X01264Y00900*
X01271Y00910*
X01276Y00922*
X01278Y00934*
X01276Y00946*
X01271Y00958*
X01264Y00968*
X01254Y00975*
X01242Y00980*
X01231Y00981*
Y00986*
X01242Y00988*
X01254Y00993*
X01264Y01000*
X01271Y01010*
X01276Y01022*
X01278Y01034*
X01276Y01046*
X01271Y01058*
X01264Y01068*
X01254Y01075*
X01242Y01080*
X01231Y01081*
Y01086*
X01242Y01088*
X01254Y01093*
X01264Y01100*
X01271Y01110*
X01276Y01122*
X01278Y01134*
X01276Y01146*
X01271Y01158*
X01264Y01168*
X01254Y01175*
X01242Y01180*
X01231Y01181*
Y01186*
X01242Y01188*
X01254Y01193*
X01264Y01200*
X01271Y01210*
X01276Y01222*
X01278Y01234*
X01276Y01246*
X01271Y01258*
X01264Y01268*
X01254Y01275*
X01242Y01280*
X01231Y01281*
Y01286*
X01242Y01288*
X01254Y01293*
X01264Y01300*
X01271Y01310*
X01276Y01322*
X01278Y01334*
X01276Y01346*
X01271Y01358*
X01264Y01368*
X01254Y01375*
X01242Y01380*
X01231Y01381*
Y01386*
X01242Y01388*
X01254Y01393*
X01264Y01400*
X01271Y01410*
X01276Y01422*
X01278Y01434*
X01276Y01446*
X01271Y01458*
X01264Y01468*
X01254Y01475*
X01242Y01480*
X01231Y01481*
Y01486*
X01242Y01488*
X01254Y01493*
X01264Y01500*
X01271Y01510*
X01276Y01522*
X01278Y01534*
X01276Y01546*
X01271Y01558*
X01264Y01568*
X01254Y01575*
X01242Y01580*
X01231Y01581*
Y01586*
X01242Y01588*
X01254Y01593*
X01264Y01600*
X01271Y01610*
X01276Y01622*
X01277Y01626*
X01222*
Y01642*
X01277*
X01276Y01646*
X01271Y01658*
X01264Y01668*
X01254Y01675*
X01242Y01680*
X01231Y01681*
Y01686*
X01242Y01688*
X01254Y01693*
X01264Y01700*
X01271Y01710*
X01276Y01722*
X01278Y01734*
X01276Y01746*
X01271Y01758*
X01264Y01768*
X01254Y01775*
X01242Y01780*
X01231Y01781*
Y01786*
X01242Y01788*
X01254Y01793*
X01264Y01800*
X01271Y01810*
X01276Y01822*
X01278Y01834*
X01276Y01846*
X01271Y01858*
X01264Y01868*
X01254Y01875*
X01242Y01880*
X01231Y01881*
Y01886*
X01242Y01888*
X01254Y01893*
X01264Y01900*
X01271Y01910*
X01276Y01922*
X01278Y01934*
X01276Y01946*
X01271Y01958*
X01264Y01968*
X01254Y01975*
X01242Y01980*
X01231Y01981*
Y01986*
X01242Y01988*
X01254Y01993*
X01264Y02000*
X01271Y02010*
X01276Y02022*
X01278Y02034*
X01276Y02046*
X01271Y02058*
X01264Y02068*
X01254Y02075*
X01242Y02080*
X01231Y02081*
Y02086*
X01242Y02088*
X01254Y02093*
X01264Y02100*
X01271Y02110*
X01276Y02122*
X01278Y02134*
X01276Y02146*
X01271Y02158*
X01264Y02168*
X01254Y02175*
X01242Y02180*
X01231Y02181*
Y02186*
X01242Y02188*
X01254Y02193*
X01264Y02200*
X01271Y02210*
X01276Y02222*
X01278Y02234*
X01276Y02246*
X01271Y02258*
X01264Y02268*
X01254Y02275*
X01242Y02280*
X01231Y02281*
Y02286*
X01242Y02288*
X01254Y02293*
X01264Y02300*
X01271Y02310*
X01276Y02322*
X01278Y02334*
X01276Y02346*
X01271Y02358*
X01264Y02368*
X01254Y02375*
X01242Y02380*
X01231Y02381*
Y02386*
X01242Y02388*
X01254Y02393*
X01264Y02400*
X01271Y02410*
X01276Y02422*
X01278Y02434*
X01276Y02446*
X01271Y02458*
X01264Y02468*
X01254Y02475*
X01242Y02480*
X01231Y02481*
Y02486*
X01242Y02488*
X01254Y02493*
X01264Y02500*
X01271Y02510*
X01276Y02522*
X01278Y02534*
X01276Y02546*
X01271Y02558*
X01264Y02568*
X01254Y02575*
X01242Y02580*
X01230Y02582*
G37*
G36*
X-01170D02*
X-01186D01*
X-01198Y02580*
X-01210Y02575*
X-01218Y02569*
X-01223Y02571*
Y02581*
X-01333*
Y02487*
X-01223*
Y02497*
X-01218Y02499*
X-01210Y02493*
X-01198Y02488*
X-01187Y02486*
Y02481*
X-01198Y02480*
X-01210Y02475*
X-01220Y02468*
X-01225Y02461*
X-01231*
X-01236Y02468*
X-01246Y02475*
X-01258Y02480*
X-01270Y02482*
X-01286*
X-01298Y02480*
X-01310Y02475*
X-01320Y02468*
X-01327Y02458*
X-01332Y02446*
X-01333Y02434*
X-01332Y02422*
X-01327Y02410*
X-01320Y02400*
X-01310Y02393*
X-01298Y02388*
X-01287Y02386*
Y02381*
X-01298Y02380*
X-01310Y02375*
X-01320Y02368*
X-01327Y02358*
X-01332Y02346*
X-01333Y02334*
X-01332Y02322*
X-01327Y02310*
X-01320Y02300*
X-01310Y02293*
X-01298Y02288*
X-01287Y02286*
Y02281*
X-01298Y02280*
X-01310Y02275*
X-01320Y02268*
X-01327Y02258*
X-01332Y02246*
X-01333Y02234*
X-01332Y02222*
X-01327Y02210*
X-01320Y02200*
X-01310Y02193*
X-01298Y02188*
X-01287Y02186*
Y02181*
X-01298Y02180*
X-01310Y02175*
X-01320Y02168*
X-01327Y02158*
X-01332Y02146*
X-01333Y02134*
X-01332Y02122*
X-01327Y02110*
X-01320Y02100*
X-01310Y02093*
X-01298Y02088*
X-01287Y02086*
Y02081*
X-01298Y02080*
X-01310Y02075*
X-01320Y02068*
X-01327Y02058*
X-01332Y02046*
X-01333Y02034*
X-01332Y02022*
X-01327Y02010*
X-01320Y02000*
X-01310Y01993*
X-01298Y01988*
X-01287Y01986*
Y01981*
X-01298Y01980*
X-01310Y01975*
X-01320Y01968*
X-01327Y01958*
X-01332Y01946*
X-01333Y01934*
X-01332Y01922*
X-01327Y01910*
X-01320Y01900*
X-01310Y01893*
X-01298Y01888*
X-01287Y01886*
Y01881*
X-01298Y01880*
X-01310Y01875*
X-01320Y01868*
X-01327Y01858*
X-01332Y01846*
X-01333Y01834*
X-01332Y01822*
X-01327Y01810*
X-01320Y01800*
X-01310Y01793*
X-01298Y01788*
X-01287Y01786*
Y01781*
X-01298Y01780*
X-01310Y01775*
X-01320Y01768*
X-01327Y01758*
X-01332Y01746*
X-01333Y01734*
X-01332Y01722*
X-01327Y01710*
X-01320Y01700*
X-01310Y01693*
X-01298Y01688*
X-01287Y01686*
Y01681*
X-01298Y01680*
X-01310Y01675*
X-01320Y01668*
X-01327Y01658*
X-01332Y01646*
Y01642*
X-01278*
Y01626*
X-01332*
Y01622*
X-01327Y01610*
X-01320Y01600*
X-01310Y01593*
X-01298Y01588*
X-01287Y01586*
Y01581*
X-01298Y01580*
X-01310Y01575*
X-01320Y01568*
X-01327Y01558*
X-01332Y01546*
X-01333Y01534*
X-01332Y01522*
X-01327Y01510*
X-01320Y01500*
X-01310Y01493*
X-01298Y01488*
X-01287Y01486*
Y01481*
X-01298Y01480*
X-01310Y01475*
X-01320Y01468*
X-01327Y01458*
X-01332Y01446*
X-01333Y01434*
X-01332Y01422*
X-01327Y01410*
X-01320Y01400*
X-01310Y01393*
X-01298Y01388*
X-01287Y01386*
Y01381*
X-01298Y01380*
X-01310Y01375*
X-01320Y01368*
X-01327Y01358*
X-01332Y01346*
X-01333Y01334*
X-01332Y01322*
X-01327Y01310*
X-01320Y01300*
X-01310Y01293*
X-01298Y01288*
X-01287Y01286*
Y01281*
X-01298Y01280*
X-01310Y01275*
X-01320Y01268*
X-01327Y01258*
X-01332Y01246*
X-01333Y01234*
X-01332Y01222*
X-01327Y01210*
X-01320Y01200*
X-01310Y01193*
X-01298Y01188*
X-01287Y01186*
Y01181*
X-01298Y01180*
X-01310Y01175*
X-01320Y01168*
X-01327Y01158*
X-01332Y01146*
X-01333Y01134*
X-01332Y01122*
X-01327Y01110*
X-01320Y01100*
X-01310Y01093*
X-01298Y01088*
X-01287Y01086*
Y01081*
X-01298Y01080*
X-01310Y01075*
X-01320Y01068*
X-01327Y01058*
X-01332Y01046*
X-01333Y01034*
X-01332Y01022*
X-01327Y01010*
X-01320Y01000*
X-01310Y00993*
X-01298Y00988*
X-01287Y00986*
Y00981*
X-01298Y00980*
X-01310Y00975*
X-01320Y00968*
X-01327Y00958*
X-01332Y00946*
X-01333Y00934*
X-01332Y00922*
X-01327Y00910*
X-01320Y00900*
X-01310Y00893*
X-01298Y00888*
X-01287Y00886*
Y00881*
X-01298Y00880*
X-01310Y00875*
X-01320Y00868*
X-01327Y00858*
X-01332Y00846*
X-01333Y00834*
X-01332Y00822*
X-01327Y00810*
X-01320Y00800*
X-01310Y00793*
X-01298Y00788*
X-01287Y00786*
Y00781*
X-01298Y00780*
X-01310Y00775*
X-01320Y00768*
X-01327Y00758*
X-01332Y00746*
X-01333Y00734*
Y00733*
X-01338Y00730*
X-01416Y00808*
X-01422Y00813*
X-01429Y00816*
X-01437Y00817*
X-01491*
X-01494Y00821*
X-01504Y00829*
X-01515Y00833*
X-01528Y00835*
X-01543*
X-01556Y00833*
X-01567Y00829*
X-01577Y00821*
X-01585Y00811*
X-01589Y00800*
X-01591Y00787*
X-01589Y00775*
X-01585Y00764*
X-01577Y00754*
X-01567Y00746*
X-01556Y00741*
X-01545Y00740*
Y00735*
X-01556Y00733*
X-01567Y00729*
X-01577Y00721*
X-01585Y00711*
X-01589Y00700*
X-01590Y00695*
X-01481*
X-01482Y00700*
X-01486Y00711*
X-01494Y00721*
X-01504Y00729*
X-01515Y00733*
X-01526Y00735*
Y00740*
X-01515Y00741*
X-01504Y00746*
X-01494Y00754*
X-01491Y00758*
X-01449*
X-01211Y00519*
Y00382*
X-01236*
Y00287*
X-01126*
Y00305*
X-00876*
X-00840Y00269*
X-00842Y00264*
X-01137*
X-01140Y00268*
X-01149Y00276*
X-01161Y00281*
X-01173Y00282*
X-01189*
X-01201Y00281*
X-01213Y00276*
X-01223Y00268*
X-01230Y00258*
X-01235Y00247*
X-01237Y00235*
X-01235Y00222*
X-01230Y00211*
X-01223Y00201*
X-01213Y00193*
X-01201Y00189*
X-01190Y00187*
Y00182*
X-01201Y00181*
X-01213Y00176*
X-01223Y00168*
X-01230Y00158*
X-01235Y00147*
X-01237Y00135*
X-01235Y00122*
X-01230Y00111*
X-01223Y00101*
X-01213Y00093*
X-01201Y00089*
X-01189Y00087*
X-01173*
X-01161Y00089*
X-01149Y00093*
X-01140Y00101*
X-01137Y00105*
X-00856*
X-00789Y00038*
X-00783Y00033*
X-00775Y00030*
X-00768Y00029*
X-00394*
X-00386Y00030*
X-00379Y00033*
X-00373Y00038*
X-00292Y00119*
X-00271Y00097*
X-00264Y00092*
X-00257Y00089*
X-00250Y00088*
X00866*
X00874Y00089*
X00881Y00092*
X00887Y00097*
X01000Y00210*
X01005Y00216*
X01008Y00223*
X01009Y00231*
Y00260*
X01031*
Y00370*
X00937*
Y00260*
X00949*
Y00243*
X00854Y00148*
X-00237*
X-00262Y00173*
Y00260*
X-00245*
Y00364*
X00552*
X00554Y00359*
X00551Y00357*
X00543Y00347*
X00538Y00335*
X00537Y00323*
Y00307*
X00538Y00295*
X00543Y00283*
X00551Y00273*
X00560Y00266*
X00572Y00261*
X00584Y00259*
X00597Y00261*
X00608Y00266*
X00618Y00273*
X00626Y00283*
X00630Y00295*
X00632Y00306*
X00637*
X00638Y00295*
X00643Y00283*
X00651Y00273*
X00660Y00266*
X00672Y00261*
X00684Y00259*
X00697Y00261*
X00708Y00266*
X00718Y00273*
X00726Y00283*
X00730Y00295*
X00732Y00306*
X00737*
X00738Y00295*
X00743Y00283*
X00751Y00273*
X00760Y00266*
X00772Y00261*
X00784Y00259*
X00797Y00261*
X00808Y00266*
X00818Y00273*
X00826Y00283*
X00830Y00295*
X00832Y00306*
X00837*
X00838Y00295*
X00843Y00283*
X00851Y00273*
X00860Y00266*
X00872Y00261*
X00884Y00259*
X00897Y00261*
X00908Y00266*
X00918Y00273*
X00926Y00283*
X00930Y00295*
X00932Y00307*
Y00323*
X00930Y00335*
X00926Y00347*
X00918Y00357*
X00914Y00360*
Y00454*
X00913Y00462*
X00910Y00469*
X00905Y00475*
X00868Y00513*
X00861Y00518*
X00854Y00521*
X00846Y00522*
X-00374*
X-00382Y00521*
X-00389Y00518*
X-00395Y00513*
X-00407Y00501*
X-00413Y00498*
X-00419Y00492*
X-00423Y00485*
X-00425Y00477*
Y00468*
X-00423Y00460*
X-00419Y00453*
X-00413Y00447*
X-00406Y00443*
X-00398Y00441*
X-00390*
X-00382Y00443*
X-00374Y00447*
X-00368Y00453*
X-00365Y00459*
X-00362Y00462*
X00834*
X00854Y00442*
Y00360*
X00851Y00357*
X00843Y00347*
X00838Y00335*
X00837Y00324*
X00832*
X00830Y00335*
X00826Y00347*
X00818Y00357*
X00808Y00364*
X00797Y00369*
X00784Y00370*
X00779*
X00734Y00415*
X00728Y00419*
X00721Y00422*
X00713Y00423*
X-00476*
X-00484Y00422*
X-00491Y00419*
X-00497Y00415*
X-00513Y00399*
X-00518Y00392*
X-00521Y00385*
X-00522Y00378*
Y00360*
X-00526Y00357*
X-00533Y00347*
X-00538Y00335*
X-00540Y00324*
X-00545*
X-00546Y00335*
X-00551Y00347*
X-00558Y00357*
X-00568Y00364*
X-00580Y00369*
X-00592Y00370*
X-00604Y00369*
X-00616Y00364*
X-00626Y00357*
X-00633Y00347*
X-00638Y00335*
X-00640Y00324*
X-00645*
X-00646Y00335*
X-00651Y00347*
X-00658Y00357*
X-00668Y00364*
X-00680Y00369*
X-00692Y00370*
X-00704Y00369*
X-00716Y00364*
X-00726Y00357*
X-00733Y00347*
X-00738Y00335*
X-00740Y00323*
Y00307*
X-00738Y00295*
X-00733Y00283*
X-00731Y00280*
X-00733Y00276*
X-00763*
X-00843Y00356*
X-00849Y00360*
X-00856Y00363*
X-00864Y00364*
X-01126*
Y00382*
X-01151*
Y00531*
X-01152Y00539*
X-01155Y00546*
X-01160Y00553*
X-01289Y00682*
X-01287Y00686*
X-01286*
X-01270*
X-01258Y00688*
X-01246Y00693*
X-01236Y00700*
X-01231Y00707*
X-01225*
X-01220Y00700*
X-01210Y00693*
X-01198Y00688*
X-01186Y00686*
X-01170*
X-01158Y00688*
X-01146Y00693*
X-01136Y00700*
X-01133Y00704*
X-00959*
X-00903Y00648*
X-00897Y00643*
X-00890Y00641*
X-00882Y00640*
X-00630*
X-00622Y00641*
X-00615Y00643*
X-00609Y00648*
X-00569Y00688*
X-00565Y00694*
X-00562Y00701*
X-00561Y00709*
Y00724*
X-00556Y00729*
X-00550Y00739*
X-00547Y00750*
Y00761*
X-00550Y00772*
X-00556Y00782*
X-00564Y00790*
X-00574Y00796*
X-00585Y00799*
X-00596*
X-00607Y00796*
X-00617Y00790*
X-00625Y00782*
X-00631Y00772*
X-00634Y00761*
Y00750*
X-00631Y00739*
X-00625Y00729*
X-00622Y00725*
Y00720*
X-00642Y00699*
X-00870*
X-00926Y00755*
X-00932Y00760*
X-00939Y00763*
X-00947Y00764*
X-01133*
X-01136Y00768*
X-01146Y00775*
X-01158Y00780*
X-01169Y00781*
Y00786*
X-01158Y00788*
X-01146Y00793*
X-01136Y00800*
X-01133Y00804*
X-00945*
X-00875Y00734*
X-00869Y00730*
X-00862Y00727*
X-00854Y00726*
X-00799*
X-00794Y00721*
X-00784Y00715*
X-00773Y00712*
X-00762*
X-00751Y00715*
X-00741Y00721*
X-00733Y00729*
X-00727Y00739*
X-00724Y00750*
Y00761*
X-00727Y00772*
X-00733Y00782*
X-00741Y00790*
X-00751Y00796*
X-00762Y00799*
X-00773*
X-00784Y00796*
X-00794Y00790*
X-00799Y00785*
X-00842*
X-00911Y00855*
X-00917Y00860*
X-00925Y00863*
X-00932Y00864*
X-01133*
X-01136Y00868*
X-01146Y00875*
X-01158Y00880*
X-01169Y00881*
Y00886*
X-01158Y00888*
X-01146Y00893*
X-01136Y00900*
X-01129Y00910*
X-01124Y00922*
X-01122Y00934*
X-01124Y00946*
X-01129Y00958*
X-01136Y00968*
X-01146Y00975*
X-01158Y00980*
X-01169Y00981*
Y00986*
X-01158Y00988*
X-01146Y00993*
X-01136Y01000*
X-01129Y01010*
X-01124Y01022*
X-01122Y01034*
X-01124Y01046*
X-01129Y01058*
X-01136Y01068*
X-01146Y01075*
X-01158Y01080*
X-01169Y01081*
Y01086*
X-01158Y01088*
X-01146Y01093*
X-01136Y01100*
X-01129Y01110*
X-01124Y01122*
X-01122Y01134*
X-01124Y01146*
X-01129Y01158*
X-01136Y01168*
X-01146Y01175*
X-01158Y01180*
X-01169Y01181*
Y01186*
X-01158Y01188*
X-01146Y01193*
X-01136Y01200*
X-01129Y01210*
X-01124Y01222*
X-01122Y01234*
X-01124Y01246*
X-01129Y01258*
X-01136Y01268*
X-01146Y01275*
X-01158Y01280*
X-01169Y01281*
Y01286*
X-01158Y01288*
X-01146Y01293*
X-01136Y01300*
X-01129Y01310*
X-01124Y01322*
X-01122Y01334*
X-01124Y01346*
X-01129Y01358*
X-01136Y01368*
X-01146Y01375*
X-01158Y01380*
X-01169Y01381*
Y01386*
X-01158Y01388*
X-01146Y01393*
X-01136Y01400*
X-01129Y01410*
X-01124Y01422*
X-01122Y01434*
X-01124Y01446*
X-01129Y01458*
X-01136Y01468*
X-01146Y01475*
X-01158Y01480*
X-01169Y01481*
Y01486*
X-01158Y01488*
X-01146Y01493*
X-01136Y01500*
X-01129Y01510*
X-01124Y01522*
X-01123Y01526*
X-01178*
Y01542*
X-01123*
X-01124Y01546*
X-01129Y01558*
X-01136Y01568*
X-01146Y01575*
X-01158Y01580*
X-01169Y01581*
Y01586*
X-01158Y01588*
X-01146Y01593*
X-01136Y01600*
X-01129Y01610*
X-01124Y01622*
X-01123Y01626*
X-01178*
Y01642*
X-01123*
X-01124Y01646*
X-01129Y01658*
X-01136Y01668*
X-01146Y01675*
X-01158Y01680*
X-01169Y01681*
Y01686*
X-01158Y01688*
X-01146Y01693*
X-01136Y01700*
X-01129Y01710*
X-01124Y01722*
X-01122Y01734*
X-01124Y01746*
X-01129Y01758*
X-01136Y01768*
X-01146Y01775*
X-01158Y01780*
X-01169Y01781*
Y01786*
X-01158Y01788*
X-01146Y01793*
X-01136Y01800*
X-01129Y01810*
X-01124Y01822*
X-01122Y01834*
X-01124Y01846*
X-01129Y01858*
X-01136Y01868*
X-01146Y01875*
X-01158Y01880*
X-01169Y01881*
Y01886*
X-01158Y01888*
X-01146Y01893*
X-01136Y01900*
X-01129Y01910*
X-01124Y01922*
X-01122Y01934*
X-01124Y01946*
X-01129Y01958*
X-01136Y01968*
X-01146Y01975*
X-01158Y01980*
X-01169Y01981*
Y01986*
X-01158Y01988*
X-01146Y01993*
X-01136Y02000*
X-01129Y02010*
X-01124Y02022*
X-01122Y02034*
X-01124Y02046*
X-01129Y02058*
X-01136Y02068*
X-01146Y02075*
X-01158Y02080*
X-01169Y02081*
Y02086*
X-01158Y02088*
X-01146Y02093*
X-01136Y02100*
X-01129Y02110*
X-01124Y02122*
X-01122Y02134*
X-01124Y02146*
X-01129Y02158*
X-01136Y02168*
X-01146Y02175*
X-01158Y02180*
X-01169Y02181*
Y02186*
X-01158Y02188*
X-01146Y02193*
X-01136Y02200*
X-01129Y02210*
X-01124Y02222*
X-01123Y02226*
X-01178*
Y02242*
X-01123*
X-01124Y02246*
X-01129Y02258*
X-01136Y02268*
X-01146Y02275*
X-01158Y02280*
X-01169Y02281*
Y02286*
X-01158Y02288*
X-01146Y02293*
X-01136Y02300*
X-01129Y02310*
X-01124Y02322*
X-01122Y02334*
X-01124Y02346*
X-01129Y02358*
X-01136Y02368*
X-01146Y02375*
X-01158Y02380*
X-01169Y02381*
Y02386*
X-01158Y02388*
X-01146Y02393*
X-01136Y02400*
X-01129Y02410*
X-01124Y02422*
X-01122Y02434*
X-01124Y02446*
X-01129Y02458*
X-01136Y02468*
X-01146Y02475*
X-01158Y02480*
X-01169Y02481*
Y02486*
X-01158Y02488*
X-01146Y02493*
X-01136Y02500*
X-01129Y02510*
X-01124Y02522*
X-01122Y02534*
X-01124Y02546*
X-01129Y02558*
X-01136Y02568*
X-01146Y02575*
X-01158Y02580*
X-01170Y02582*
G37*
G36*
X02331Y01579D02*
X02315D01*
X02299Y01576*
X02284Y01569*
X02270Y01560*
X02259Y01549*
X02250Y01535*
X02243Y01520*
X02240Y01504*
Y01488*
X02243Y01472*
X02250Y01457*
X02259Y01443*
X02270Y01432*
X02284Y01423*
X02299Y01417*
X02315Y01413*
X02331*
X02347Y01417*
X02362Y01423*
X02376Y01432*
X02387Y01443*
X02396Y01457*
X02402Y01472*
X02406Y01488*
Y01504*
X02402Y01520*
X02396Y01535*
X02387Y01549*
X02376Y01560*
X02362Y01569*
X02347Y01576*
X02331Y01579*
G37*
G36*
X-02315D02*
X-02331D01*
X-02347Y01576*
X-02362Y01569*
X-02376Y01560*
X-02387Y01549*
X-02396Y01535*
X-02402Y01520*
X-02406Y01504*
Y01488*
X-02402Y01472*
X-02396Y01457*
X-02387Y01443*
X-02376Y01432*
X-02362Y01423*
X-02347Y01417*
X-02331Y01413*
X-02315*
X-02299Y01417*
X-02284Y01423*
X-02270Y01432*
X-02259Y01443*
X-02250Y01457*
X-02243Y01472*
X-02240Y01488*
Y01504*
X-02243Y01520*
X-02250Y01535*
X-02259Y01549*
X-02270Y01560*
X-02284Y01569*
X-02299Y01576*
X-02315Y01579*
G37*
G36*
X-00585Y01099D02*
X-00596D01*
X-00607Y01096*
X-00617Y01090*
X-00625Y01082*
X-00631Y01072*
X-00634Y01061*
Y01050*
X-00631Y01039*
X-00625Y01029*
X-00617Y01021*
X-00607Y01015*
X-00596Y01012*
X-00585*
X-00574Y01015*
X-00564Y01021*
X-00556Y01029*
X-00550Y01039*
X-00547Y01050*
Y01061*
X-00550Y01072*
X-00556Y01082*
X-00564Y01090*
X-00574Y01096*
X-00585Y01099*
G37*
G36*
X-00762D02*
X-00773D01*
X-00784Y01096*
X-00794Y01090*
X-00802Y01082*
X-00808Y01072*
X-00811Y01061*
Y01050*
X-00808Y01039*
X-00802Y01029*
X-00794Y01021*
X-00784Y01015*
X-00773Y01012*
X-00762*
X-00751Y01015*
X-00741Y01021*
X-00733Y01029*
X-00727Y01039*
X-00724Y01050*
Y01061*
X-00727Y01072*
X-00733Y01082*
X-00741Y01090*
X-00751Y01096*
X-00762Y01099*
G37*
G36*
X-01668Y00961D02*
X-01679D01*
X-01690Y00958*
X-01700Y00952*
X-01708Y00944*
X-01714Y00934*
X-01717Y00923*
Y00912*
X-01714Y00901*
X-01708Y00891*
X-01700Y00883*
X-01690Y00877*
X-01679Y00874*
X-01668*
X-01657Y00877*
X-01647Y00883*
X-01639Y00891*
X-01633Y00901*
X-01630Y00912*
Y00923*
X-01633Y00934*
X-01639Y00944*
X-01647Y00952*
X-01657Y00958*
X-01668Y00961*
G37*
G36*
X-01480Y00935D02*
X-01591D01*
Y00840*
X-01480*
Y00935*
G37*
G36*
X-01481Y00680D02*
X-01528D01*
Y00640*
X-01515Y00641*
X-01504Y00646*
X-01494Y00654*
X-01486Y00664*
X-01482Y00675*
X-01481Y00680*
G37*
G36*
X-01543D02*
X-01590D01*
X-01589Y00675*
X-01585Y00664*
X-01577Y00654*
X-01567Y00646*
X-01556Y00641*
X-01543Y00640*
Y00680*
G37*
G36*
X-01665Y00660D02*
Y00626D01*
X-01631*
X-01633Y00634*
X-01639Y00644*
X-01647Y00652*
X-01657Y00658*
X-01665Y00660*
G37*
G36*
X-01681D02*
X-01690Y00658D01*
X-01700Y00652*
X-01708Y00644*
X-01714Y00634*
X-01716Y00626*
X-01681*
Y00660*
G37*
G36*
Y00610D02*
X-01716D01*
X-01714Y00601*
X-01708Y00591*
X-01700Y00583*
X-01690Y00577*
X-01681Y00575*
Y00610*
G37*
G36*
X-01631D02*
X-01665D01*
Y00575*
X-01657Y00577*
X-01647Y00583*
X-01639Y00591*
X-01633Y00601*
X-01631Y00610*
G37*
G36*
X-01873Y00382D02*
X-01889D01*
X-01901Y00381*
X-01913Y00376*
X-01923Y00368*
X-01930Y00358*
X-01935Y00347*
X-01937Y00335*
X-01935Y00322*
X-01930Y00311*
X-01923Y00301*
X-01913Y00293*
X-01901Y00289*
X-01890Y00287*
Y00282*
X-01901Y00281*
X-01913Y00276*
X-01923Y00268*
X-01930Y00258*
X-01935Y00247*
X-01937Y00235*
X-01935Y00222*
X-01930Y00211*
X-01923Y00201*
X-01913Y00193*
X-01901Y00189*
X-01890Y00187*
Y00182*
X-01901Y00181*
X-01913Y00176*
X-01923Y00168*
X-01930Y00158*
X-01935Y00147*
X-01937Y00135*
X-01935Y00122*
X-01930Y00111*
X-01923Y00101*
X-01913Y00093*
X-01901Y00089*
X-01889Y00087*
X-01873*
X-01861Y00089*
X-01849Y00093*
X-01840Y00101*
X-01832Y00111*
X-01827Y00122*
X-01826Y00135*
X-01827Y00147*
X-01832Y00158*
X-01840Y00168*
X-01849Y00176*
X-01861Y00181*
X-01872Y00182*
Y00187*
X-01861Y00189*
X-01849Y00193*
X-01840Y00201*
X-01832Y00211*
X-01827Y00222*
X-01826Y00235*
X-01827Y00247*
X-01832Y00258*
X-01840Y00268*
X-01849Y00276*
X-01861Y00281*
X-01872Y00282*
Y00287*
X-01861Y00289*
X-01849Y00293*
X-01840Y00301*
X-01832Y00311*
X-01827Y00322*
X-01826Y00335*
X-01827Y00347*
X-01832Y00358*
X-01840Y00368*
X-01849Y00376*
X-01861Y00381*
X-01873Y00382*
G37*
G36*
X02173Y00083D02*
X02157D01*
X02141Y00079*
X02126Y00073*
X02113Y00064*
X02101Y00053*
X02092Y00039*
X02086Y00024*
X02083Y00008*
Y-00008*
X02086Y-00024*
X02092Y-00039*
X02101Y-00053*
X02113Y-00064*
X02126Y-00073*
X02141Y-00079*
X02157Y-00083*
X02173*
X02189Y-00079*
X02205Y-00073*
X02218Y-00064*
X02230Y-00053*
X02239Y-00039*
X02245Y-00024*
X02248Y-00008*
Y00008*
X02245Y00024*
X02239Y00039*
X02230Y00053*
X02218Y00064*
X02205Y00073*
X02189Y00079*
X02173Y00083*
G37*
G36*
X-02157D02*
X-02173D01*
X-02189Y00079*
X-02205Y00073*
X-02218Y00064*
X-02230Y00053*
X-02239Y00039*
X-02245Y00024*
X-02248Y00008*
Y-00008*
X-02245Y-00024*
X-02239Y-00039*
X-02230Y-00053*
X-02218Y-00064*
X-02205Y-00073*
X-02189Y-00079*
X-02173Y-00083*
X-02157*
X-02141Y-00079*
X-02126Y-00073*
X-02113Y-00064*
X-02101Y-00053*
X-02092Y-00039*
X-02086Y-00024*
X-02083Y-00008*
Y00008*
X-02086Y00024*
X-02092Y00039*
X-02101Y00053*
X-02113Y00064*
X-02126Y00073*
X-02141Y00079*
X-02157Y00083*
G37*
G36*
X01358Y00095D02*
X01349Y00094D01*
X01340Y00090*
X01333Y00084*
X01327Y00077*
X01324Y00068*
X01323Y00059*
X01324Y00050*
X01327Y00041*
X01333Y00034*
X01530Y-00163*
X01537Y-00169*
X01546Y-00172*
X01555Y-00174*
X01564Y-00172*
X01573Y-00169*
X01580Y-00163*
X01586Y-00156*
X01590Y-00147*
X01591Y-00138*
X01590Y-00129*
X01586Y-00120*
X01580Y-00113*
X01384Y00084*
X01376Y00090*
X01368Y00094*
X01358Y00095*
G37*
G36*
X02276Y-00406D02*
X02229D01*
Y-00445*
X02276*
Y-00406*
G37*
G36*
X02429Y-00405D02*
Y-00445D01*
X02476*
X02475Y-00440*
X02470Y-00429*
X02463Y-00419*
X02453Y-00411*
X02441Y-00407*
X02429Y-00405*
G37*
G36*
X02413D02*
D01*
X02401Y-00407*
X02390Y-00411*
X02380Y-00419*
X02372Y-00429*
X02367Y-00440*
Y-00445*
X02413*
Y-00405*
G37*
G36*
X02213Y-00406D02*
X02166D01*
Y-00445*
X02213*
Y-00406*
G37*
G36*
X-02389Y-00386D02*
X-02499D01*
Y-00480*
X-02389*
Y-00386*
G37*
G36*
X-02236Y-00385D02*
X-02252D01*
X-02264Y-00387*
X-02276Y-00392*
X-02286Y-00399*
X-02293Y-00409*
X-02298Y-00421*
X-02300Y-00433*
X-02298Y-00445*
X-02293Y-00457*
X-02286Y-00467*
X-02276Y-00474*
X-02264Y-00479*
X-02252Y-00481*
X-02236*
X-02224Y-00479*
X-02212Y-00474*
X-02203Y-00467*
X-02195Y-00457*
X-02190Y-00445*
X-02189Y-00433*
X-02190Y-00421*
X-02195Y-00409*
X-02203Y-00399*
X-02212Y-00392*
X-02224Y-00387*
X-02236Y-00385*
G37*
G36*
X02276Y-00461D02*
X02229D01*
Y-00500*
X02276*
Y-00461*
G37*
G36*
X02213D02*
X02166D01*
Y-00500*
X02213*
Y-00461*
G37*
G36*
X02476D02*
X02429D01*
Y-00500*
X02441Y-00499*
X02453Y-00494*
X02463Y-00486*
X02470Y-00477*
X02475Y-00465*
X02476Y-00461*
G37*
G36*
X02413D02*
X02367D01*
Y-00465*
X02372Y-00477*
X02380Y-00486*
X02390Y-00494*
X02401Y-00499*
X02413Y-00500*
Y-00461*
G37*
G36*
X-02333Y-00681D02*
X-02349D01*
X-02361Y-00682*
X-02373Y-00687*
X-02383Y-00695*
X-02388Y-00702*
X-02394*
X-02399Y-00695*
X-02409Y-00687*
X-02421Y-00682*
X-02433Y-00681*
X-02449*
X-02461Y-00682*
X-02473Y-00687*
X-02481Y-00693*
X-02486Y-00691*
Y-00681*
X-02596*
Y-00776*
X-02486*
Y-00766*
X-02481Y-00763*
X-02473Y-00770*
X-02461Y-00774*
X-02449Y-00776*
X-02433*
X-02421Y-00774*
X-02409Y-00770*
X-02399Y-00762*
X-02394Y-00755*
X-02388*
X-02383Y-00762*
X-02373Y-00770*
X-02361Y-00774*
X-02349Y-00776*
X-02333*
X-02321Y-00774*
X-02309Y-00770*
X-02299Y-00762*
X-02292Y-00752*
X-02287Y-00741*
X-02285Y-00728*
X-02287Y-00716*
X-02292Y-00705*
X-02299Y-00695*
X-02309Y-00687*
X-02321Y-00682*
X-02333Y-00681*
G37*
G36*
X-02098Y-00641D02*
X-02114D01*
X-02127Y-00643*
X-02138Y-00648*
X-02148Y-00655*
X-02155Y-00665*
X-02160Y-00677*
X-02162Y-00689*
X-02160Y-00701*
X-02155Y-00713*
X-02148Y-00723*
X-02138Y-00730*
X-02127Y-00735*
X-02114Y-00737*
X-02098*
X-02086Y-00735*
X-02075Y-00730*
X-02065Y-00723*
X-02057Y-00713*
X-02052Y-00701*
X-02051Y-00689*
X-02052Y-00677*
X-02057Y-00665*
X-02065Y-00655*
X-02075Y-00648*
X-02086Y-00643*
X-02098Y-00641*
G37*
G36*
X-02051Y-00742D02*
X-02161D01*
Y-00836*
X-02051*
Y-00742*
G37*
G36*
X01776Y-00657D02*
X01768D01*
X01759Y-00660*
X01752Y-00664*
X01746Y-00670*
X01742Y-00677*
X01740Y-00685*
Y-00693*
X01742Y-00701*
X01746Y-00708*
X01752Y-00714*
X01758Y-00717*
X01920Y-00880*
X01924Y-00885*
X01929Y-00891*
X01937Y-00895*
X01945Y-00898*
X01953*
X01961Y-00895*
X01968Y-00891*
X01974Y-00885*
X01978Y-00878*
X01980Y-00870*
Y-00862*
X01978Y-00854*
X01974Y-00847*
X01968Y-00841*
X01962Y-00838*
X01800Y-00675*
X01797Y-00670*
X01791Y-00664*
X01784Y-00660*
X01776Y-00657*
G37*
G36*
X02542Y-00915D02*
D01*
Y-00955*
X02588*
Y-00951*
X02583Y-00939*
X02575Y-00929*
X02566Y-00922*
X02554Y-00917*
X02542Y-00915*
G37*
G36*
X02526D02*
D01*
X02514Y-00917*
X02502Y-00922*
X02492Y-00929*
X02485Y-00939*
X02480Y-00951*
X02479Y-00955*
X02526*
Y-00915*
G37*
G36*
X-02101Y-00924D02*
X-02111D01*
X-02121Y-00926*
X-02130Y-00931*
X-02138Y-00939*
X-02143Y-00948*
X-02146Y-00958*
Y-00968*
X-02143Y-00978*
X-02138Y-00987*
X-02130Y-00994*
X-02121Y-01000*
X-02111Y-01002*
X-02101*
X-02091Y-01000*
X-02082Y-00994*
X-02075Y-00987*
X-02070Y-00978*
X-02067Y-00968*
Y-00958*
X-02070Y-00948*
X-02075Y-00939*
X-02082Y-00931*
X-02091Y-00926*
X-02101Y-00924*
G37*
G36*
X-02534Y-00925D02*
X-02545D01*
X-02555Y-00928*
X-02564Y-00933*
X-02571Y-00940*
X-02576Y-00949*
X-02579Y-00959*
Y-00970*
X-02576Y-00980*
X-02571Y-00989*
X-02564Y-00996*
X-02555Y-01001*
X-02545Y-01004*
X-02534*
X-02524Y-01001*
X-02515Y-00996*
X-02508Y-00989*
X-02503Y-00980*
X-02500Y-00970*
Y-00959*
X-02503Y-00949*
X-02508Y-00940*
X-02515Y-00933*
X-02524Y-00928*
X-02534Y-00925*
G37*
G36*
X01642Y-01015D02*
D01*
Y-01055*
X01688*
Y-01051*
X01683Y-01039*
X01675Y-01029*
X01666Y-01022*
X01654Y-01017*
X01642Y-01015*
G37*
G36*
X01626D02*
D01*
X01614Y-01017*
X01602Y-01022*
X01592Y-01029*
X01585Y-01039*
X01580Y-01051*
X01579Y-01055*
X01626*
Y-01015*
G37*
G36*
X-02098Y-01024D02*
Y-01055D01*
X-02068*
X-02070Y-01048*
X-02075Y-01039*
X-02082Y-01031*
X-02091Y-01026*
X-02098Y-01024*
G37*
G36*
X-02114D02*
X-02121Y-01026D01*
X-02130Y-01031*
X-02138Y-01039*
X-02143Y-01048*
X-02145Y-01055*
X-02114*
Y-01024*
G37*
G36*
X-02531Y-01026D02*
Y-01057D01*
X-02501*
X-02503Y-01049*
X-02508Y-01040*
X-02515Y-01033*
X-02524Y-01028*
X-02531Y-01026*
G37*
G36*
X-02547D02*
X-02555Y-01028D01*
X-02564Y-01033*
X-02571Y-01040*
X-02576Y-01049*
X-02578Y-01057*
X-02547*
Y-01026*
G37*
G36*
X-02315Y-00876D02*
X-02331D01*
X-02343Y-00878*
X-02355Y-00882*
X-02364Y-00890*
X-02372Y-00900*
X-02377Y-00911*
X-02378Y-00924*
X-02377Y-00936*
X-02372Y-00947*
X-02364Y-00957*
X-02355Y-00965*
X-02343Y-00970*
X-02332Y-00971*
Y-00976*
X-02343Y-00978*
X-02355Y-00982*
X-02364Y-00990*
X-02372Y-01000*
X-02377Y-01011*
X-02378Y-01024*
X-02377Y-01036*
X-02372Y-01047*
X-02364Y-01057*
X-02355Y-01065*
X-02343Y-01070*
X-02331Y-01071*
X-02315*
X-02303Y-01070*
X-02291Y-01065*
X-02281Y-01057*
X-02274Y-01047*
X-02269Y-01036*
X-02267Y-01024*
X-02269Y-01011*
X-02274Y-01000*
X-02281Y-00990*
X-02291Y-00982*
X-02303Y-00978*
X-02314Y-00976*
Y-00971*
X-02303Y-00970*
X-02291Y-00965*
X-02281Y-00957*
X-02274Y-00947*
X-02269Y-00936*
X-02267Y-00924*
X-02269Y-00911*
X-02274Y-00900*
X-02281Y-00890*
X-02291Y-00882*
X-02303Y-00878*
X-02315Y-00876*
G37*
G36*
X-02068Y-01071D02*
X-02098D01*
Y-01102*
X-02091Y-01100*
X-02082Y-01094*
X-02075Y-01087*
X-02070Y-01078*
X-02068Y-01071*
G37*
G36*
X-02114D02*
X-02145D01*
X-02143Y-01078*
X-02138Y-01087*
X-02130Y-01094*
X-02121Y-01100*
X-02114Y-01102*
Y-01071*
G37*
G36*
X-02501Y-01072D02*
X-02531D01*
Y-01103*
X-02524Y-01101*
X-02515Y-01096*
X-02508Y-01089*
X-02503Y-01080*
X-02501Y-01072*
G37*
G36*
X-02547D02*
X-02578D01*
X-02576Y-01080*
X-02571Y-01089*
X-02564Y-01096*
X-02555Y-01101*
X-02547Y-01103*
Y-01072*
G37*
G36*
X-02268Y-01076D02*
X-02315D01*
Y-01116*
X-02268*
Y-01076*
G37*
G36*
X-02331D02*
X-02378D01*
Y-01116*
X-02331*
Y-01076*
G37*
G36*
X02588Y-00971D02*
X02534D01*
X02479*
X02480Y-00975*
X02485Y-00987*
X02492Y-00997*
X02502Y-01004*
X02514Y-01009*
X02525Y-01010*
Y-01016*
X02514Y-01017*
X02502Y-01022*
X02492Y-01029*
X02485Y-01039*
X02480Y-01051*
X02478Y-01063*
X02480Y-01075*
X02485Y-01087*
X02492Y-01097*
X02502Y-01104*
X02514Y-01109*
X02525Y-01110*
Y-01116*
X02514Y-01117*
X02502Y-01122*
X02492Y-01129*
X02485Y-01139*
X02480Y-01151*
X02478Y-01163*
X02480Y-01175*
X02485Y-01187*
X02492Y-01197*
X02502Y-01204*
X02514Y-01209*
X02525Y-01210*
Y-01216*
X02514Y-01217*
X02502Y-01222*
X02492Y-01229*
X02485Y-01239*
X02480Y-01251*
X02478Y-01263*
X02480Y-01275*
X02485Y-01287*
X02492Y-01297*
X02502Y-01304*
X02514Y-01309*
X02525Y-01310*
Y-01316*
X02514Y-01317*
X02502Y-01322*
X02492Y-01329*
X02485Y-01339*
X02480Y-01351*
X02478Y-01363*
X02480Y-01375*
X02485Y-01387*
X02492Y-01397*
X02502Y-01404*
X02514Y-01409*
X02525Y-01410*
Y-01416*
X02514Y-01417*
X02502Y-01422*
X02492Y-01429*
X02485Y-01439*
X02480Y-01451*
X02478Y-01463*
X02480Y-01475*
X02485Y-01487*
X02492Y-01497*
X02502Y-01504*
X02514Y-01509*
X02525Y-01510*
Y-01516*
X02514Y-01517*
X02502Y-01522*
X02492Y-01529*
X02485Y-01539*
X02480Y-01551*
X02478Y-01563*
X02480Y-01575*
X02485Y-01587*
X02492Y-01597*
X02502Y-01604*
X02514Y-01609*
X02526Y-01611*
X02542*
X02554Y-01609*
X02566Y-01604*
X02575Y-01597*
X02583Y-01587*
X02588Y-01575*
X02589Y-01563*
X02588Y-01551*
X02583Y-01539*
X02575Y-01529*
X02566Y-01522*
X02554Y-01517*
X02543Y-01516*
Y-01510*
X02554Y-01509*
X02566Y-01504*
X02575Y-01497*
X02583Y-01487*
X02588Y-01475*
X02589Y-01463*
X02588Y-01451*
X02583Y-01439*
X02575Y-01429*
X02566Y-01422*
X02554Y-01417*
X02543Y-01416*
Y-01410*
X02554Y-01409*
X02566Y-01404*
X02575Y-01397*
X02583Y-01387*
X02588Y-01375*
X02589Y-01363*
X02588Y-01351*
X02583Y-01339*
X02575Y-01329*
X02566Y-01322*
X02554Y-01317*
X02543Y-01316*
Y-01310*
X02554Y-01309*
X02566Y-01304*
X02575Y-01297*
X02583Y-01287*
X02588Y-01275*
X02589Y-01263*
X02588Y-01251*
X02583Y-01239*
X02575Y-01229*
X02566Y-01222*
X02554Y-01217*
X02543Y-01216*
Y-01210*
X02554Y-01209*
X02566Y-01204*
X02575Y-01197*
X02583Y-01187*
X02588Y-01175*
X02589Y-01163*
X02588Y-01151*
X02583Y-01139*
X02575Y-01129*
X02566Y-01122*
X02554Y-01117*
X02543Y-01116*
Y-01110*
X02554Y-01109*
X02566Y-01104*
X02575Y-01097*
X02583Y-01087*
X02588Y-01075*
X02589Y-01063*
X02588Y-01051*
X02583Y-01039*
X02575Y-01029*
X02566Y-01022*
X02554Y-01017*
X02543Y-01016*
Y-01010*
X02554Y-01009*
X02566Y-01004*
X02575Y-00997*
X02583Y-00987*
X02588Y-00975*
Y-00971*
G37*
G36*
X02589Y-01616D02*
X02542D01*
Y-01655*
X02589*
Y-01616*
G37*
G36*
X02526D02*
X02479D01*
Y-01655*
X02526*
Y-01616*
G37*
G36*
X02589Y-01671D02*
X02542D01*
Y-01710*
X02589*
Y-01671*
G37*
G36*
X02526D02*
X02479D01*
Y-01710*
X02526*
Y-01671*
G37*
G36*
X01688Y-01071D02*
X01634D01*
X01579*
X01580Y-01075*
X01585Y-01087*
X01592Y-01097*
X01602Y-01104*
X01614Y-01109*
X01625Y-01110*
Y-01116*
X01614Y-01117*
X01602Y-01122*
X01592Y-01129*
X01585Y-01139*
X01580Y-01151*
X01578Y-01163*
X01580Y-01175*
X01585Y-01187*
X01592Y-01197*
X01602Y-01204*
X01614Y-01209*
X01625Y-01210*
Y-01216*
X01614Y-01217*
X01602Y-01222*
X01592Y-01229*
X01585Y-01239*
X01580Y-01251*
X01578Y-01263*
X01580Y-01275*
X01585Y-01287*
X01592Y-01297*
X01602Y-01304*
X01614Y-01309*
X01625Y-01310*
Y-01316*
X01614Y-01317*
X01602Y-01322*
X01592Y-01329*
X01585Y-01339*
X01580Y-01351*
X01578Y-01363*
X01580Y-01375*
X01585Y-01387*
X01592Y-01397*
X01602Y-01404*
X01614Y-01409*
X01625Y-01410*
Y-01416*
X01614Y-01417*
X01602Y-01422*
X01592Y-01429*
X01585Y-01439*
X01580Y-01451*
X01578Y-01463*
X01580Y-01475*
X01585Y-01487*
X01592Y-01497*
X01602Y-01504*
X01614Y-01509*
X01625Y-01510*
Y-01516*
X01614Y-01517*
X01602Y-01522*
X01592Y-01529*
X01585Y-01539*
X01580Y-01551*
X01578Y-01563*
X01580Y-01575*
X01585Y-01587*
X01592Y-01597*
X01602Y-01604*
X01614Y-01609*
X01625Y-01610*
Y-01616*
X01614Y-01617*
X01602Y-01622*
X01592Y-01629*
X01585Y-01639*
X01580Y-01651*
X01578Y-01663*
X01580Y-01675*
X01585Y-01687*
X01592Y-01697*
X01602Y-01704*
X01614Y-01709*
X01626Y-01711*
X01642*
X01654Y-01709*
X01666Y-01704*
X01675Y-01697*
X01683Y-01687*
X01688Y-01675*
X01689Y-01663*
X01688Y-01651*
X01683Y-01639*
X01675Y-01629*
X01666Y-01622*
X01654Y-01617*
X01643Y-01616*
Y-01610*
X01654Y-01609*
X01666Y-01604*
X01675Y-01597*
X01683Y-01587*
X01688Y-01575*
X01689Y-01563*
X01688Y-01551*
X01683Y-01539*
X01675Y-01529*
X01666Y-01522*
X01654Y-01517*
X01643Y-01516*
Y-01510*
X01654Y-01509*
X01666Y-01504*
X01675Y-01497*
X01683Y-01487*
X01688Y-01475*
X01689Y-01463*
X01688Y-01451*
X01683Y-01439*
X01675Y-01429*
X01666Y-01422*
X01654Y-01417*
X01643Y-01416*
Y-01410*
X01654Y-01409*
X01666Y-01404*
X01675Y-01397*
X01683Y-01387*
X01688Y-01375*
X01689Y-01363*
X01688Y-01351*
X01683Y-01339*
X01675Y-01329*
X01666Y-01322*
X01654Y-01317*
X01643Y-01316*
Y-01310*
X01654Y-01309*
X01666Y-01304*
X01675Y-01297*
X01683Y-01287*
X01688Y-01275*
X01689Y-01263*
X01688Y-01251*
X01683Y-01239*
X01675Y-01229*
X01666Y-01222*
X01654Y-01217*
X01643Y-01216*
Y-01210*
X01654Y-01209*
X01666Y-01204*
X01675Y-01197*
X01683Y-01187*
X01688Y-01175*
X01689Y-01163*
X01688Y-01151*
X01683Y-01139*
X01675Y-01129*
X01666Y-01122*
X01654Y-01117*
X01643Y-01116*
Y-01110*
X01654Y-01109*
X01666Y-01104*
X01675Y-01097*
X01683Y-01087*
X01688Y-01075*
Y-01071*
G37*
%LNbuoynode_pcb-3*%
%LPD*%
G36*
X-00438Y00295D02*
X-00433Y00283D01*
X-00426Y00273*
X-00422Y00270*
Y00171*
X-00445Y00148*
X-00696*
X-00760Y00212*
X-00758Y00216*
X-00511*
X-00504Y00217*
X-00496Y00220*
X-00490Y00225*
X-00474Y00241*
X-00469Y00247*
X-00466Y00254*
X-00465Y00262*
Y00268*
X-00458Y00273*
X-00451Y00283*
X-00446Y00295*
X-00445Y00306*
X-00440*
X-00438Y00295*
G37*
G36*
X-00339Y00260D02*
X-00322D01*
Y00173*
X-00406Y00089*
X-00415*
X-00416Y00094*
X-00412Y00097*
X-00371Y00138*
X-00366Y00144*
X-00363Y00151*
X-00362Y00159*
Y00270*
X-00358Y00273*
X-00351Y00283*
X-00346Y00295*
X-00344Y00307*
Y00323*
X-00346Y00335*
X-00351Y00347*
X-00358Y00357*
X-00362Y00359*
X-00360Y00364*
X-00339*
Y00260*
G37*
G36*
X-00730Y00097D02*
X-00726Y00094D01*
X-00727Y00089*
X-00755*
X-00822Y00156*
X-00828Y00160*
X-00836Y00163*
X-00843Y00164*
X-01137*
X-01140Y00168*
X-01149Y00176*
X-01161Y00181*
X-01172Y00182*
Y00187*
X-01161Y00189*
X-01149Y00193*
X-01140Y00201*
X-01137Y00205*
X-00838*
X-00730Y00097*
G37*
G54D20*
X-01673Y00918D03*
Y00618D03*
X-00591Y01056D03*
Y00756D03*
X-00768Y01056D03*
Y00756D03*
G54D23*
X-01647Y-00169D03*
X-01424D03*
G54D24*
X01358Y00059D02*
X01555Y-00138D01*
G54D25*
X-00394Y00472D02*
X-00374Y00492D01*
X00846*
X-00630Y00669D02*
X-00591Y00709D01*
Y00756*
X-00882Y00669D02*
X-00630D01*
X00713Y00394D02*
X00784Y00323D01*
X-00476Y00394D02*
X00713D01*
X-00492Y00315D02*
Y00378D01*
X-00476Y00394*
X00784Y00315D02*
Y00323D01*
X00884Y00315D02*
Y00454D01*
X00846Y00492D02*
X00884Y00454D01*
X00866Y00118D02*
X00979Y00231D01*
Y00309*
X-00250Y00118D02*
X00866D01*
X-00495Y00312D02*
X-00492Y00315D01*
X-00511Y00246D02*
X-00495Y00262D01*
X-00775Y00246D02*
X-00511D01*
X-00495Y00262D02*
Y00312D01*
X-01181Y00335D02*
X-00864D01*
X-00775Y00246*
X-00392Y00315D02*
X-00385Y00322D01*
X-01181Y00235D02*
X-00825D01*
X-00709Y00118*
X-00433*
X-01535Y00787D02*
X-01437D01*
X-01181Y00531*
Y00335D02*
Y00531D01*
X00979Y00309D02*
X00984Y00315D01*
X-00292Y00161D02*
X-00250Y00118D01*
X-00392Y00159D02*
Y00315D01*
X-00394Y00059D02*
X-00292Y00161D01*
Y00315*
X-00433Y00118D02*
X-00392Y00159D01*
X-00947Y00734D02*
X-00882Y00669D01*
X-01178Y00834D02*
X-00932D01*
X-00854Y00756D02*
X-00768D01*
X-00932Y00834D02*
X-00854Y00756D01*
X-01178Y00734D02*
X-00947D01*
X-01181Y00135D02*
X-00843D01*
X-00768Y00059*
X-00394*
X01772Y-00689D02*
X01949Y-00866D01*
X01772Y-00689D02*
D01*
G54D26*
X-01904Y-00276D02*
X01372D01*
X01378Y-00281*
Y-01766D02*
X01384Y-01772D01*
X02671D02*
X02677Y-01766D01*
X01384Y-01772D02*
X02671D01*
X01378Y-01766D02*
Y-00281D01*
X-01909D02*
X-01904Y-00276D01*
X-01909Y-01195D02*
Y-00281D01*
X02671Y02835D02*
X02677Y02829D01*
Y-01766D02*
Y02829D01*
X-02677Y-01195D02*
Y02829D01*
X-02671Y02835*
X-02677Y-01195D02*
X-01910D01*
X-01240Y03498D02*
X-01234Y03504D01*
X01240Y02841D02*
Y03498D01*
X01246Y02835D02*
X02671D01*
X01240Y02841D02*
X01246Y02835D01*
X01234Y03504D02*
X01240Y03498D01*
X-01234Y03504D02*
X01234D01*
X-02671Y02835D02*
X-01240D01*
Y03498*
G54D27*
X-00292Y00315D03*
X00984D03*
G54D28*
X-00392Y00315D03*
X-00492D03*
X-00592D03*
X-00692D03*
X00884D03*
X00784D03*
X00684D03*
X00584D03*
G54D29*
X02534Y-01663D03*
X-01278Y02534D03*
X01122D03*
X-02323Y-01124D03*
X-01181Y00335D03*
X-02444Y-00433D03*
X02221Y-00453D03*
X-02106Y-00789D03*
X-01535Y00887D03*
G54D30*
X02534Y-01563D03*
Y-01463D03*
Y-01363D03*
Y-01263D03*
Y-01163D03*
Y-01063D03*
Y-00963D03*
X01634Y-01663D03*
Y-01563D03*
Y-01463D03*
Y-01363D03*
Y-01263D03*
Y-01163D03*
Y-01063D03*
X-01178Y00734D03*
Y00834D03*
Y00934D03*
Y01034D03*
Y01134D03*
Y01234D03*
Y01334D03*
Y01434D03*
Y01534D03*
Y01634D03*
Y01734D03*
Y01834D03*
Y01934D03*
Y02034D03*
Y02134D03*
Y02234D03*
Y02334D03*
Y02434D03*
Y02534D03*
X-01278Y00734D03*
Y00834D03*
Y00934D03*
Y01034D03*
Y01134D03*
Y01234D03*
Y01334D03*
Y01434D03*
Y01534D03*
Y01634D03*
Y01734D03*
Y01834D03*
Y01934D03*
Y02034D03*
Y02134D03*
Y02234D03*
Y02334D03*
Y02434D03*
X01222Y02134D03*
Y01834D03*
Y01534D03*
Y01234D03*
Y02534D03*
Y02434D03*
Y02334D03*
Y02234D03*
Y02034D03*
Y01934D03*
Y01734D03*
Y01634D03*
Y01434D03*
Y01334D03*
Y01134D03*
Y01034D03*
Y00934D03*
Y00834D03*
Y00734D03*
X01122Y02134D03*
Y01834D03*
Y01534D03*
Y01234D03*
Y02434D03*
Y02334D03*
Y02234D03*
Y02034D03*
Y01934D03*
Y01734D03*
Y01634D03*
Y01434D03*
Y01334D03*
Y01134D03*
Y01034D03*
Y00934D03*
Y00834D03*
Y00734D03*
X-02323Y-01024D03*
Y-00924D03*
X-01181Y00235D03*
Y00135D03*
X-01881Y00335D03*
Y00235D03*
Y00135D03*
X-02244Y-00433D03*
X02421Y-00453D03*
X-02106Y-00689D03*
X-01535Y00687D03*
Y00787D03*
G54D31*
X-02541Y-00728D03*
G54D32*
X-02441Y-00728D03*
X-02341D03*
G54D33*
X-02165Y00000D03*
X00000Y03169D03*
X02165Y00000D03*
X-02323Y01496D03*
X02323D03*
G54D34*
X-02539Y-01065D03*
Y-00965D03*
X-02106Y-01063D03*
Y-00963D03*
G54D35*
X01358Y00059D03*
X-00394Y00472D03*
X01555Y-00138D03*
X01772Y-00689D03*
X01949Y-00866D03*
M02*