G04*
G04 #@! TF.GenerationSoftware,Altium Limited,Altium Designer,20.1.14 (287)*
G04*
G04 Layer_Physical_Order=1*
G04 Layer_Color=255*
%FSLAX23Y23*%
%MOIN*%
G70*
G04*
G04 #@! TF.SameCoordinates,8A41C755-1FF9-433D-9844-E7126158F4D2*
G04*
G04*
G04 #@! TF.FilePolarity,Positive*
G04*
G01*
G75*
%ADD15R,0.050X0.142*%
%ADD16R,0.053X0.165*%
%ADD17R,0.118X0.055*%
%ADD18C,0.010*%
%ADD19C,0.020*%
%ADD20O,0.079X0.063*%
%ADD21C,0.060*%
D15*
X939Y138D02*
D03*
D16*
X1051Y130D02*
D03*
X828D02*
D03*
D17*
X893Y835D02*
D03*
Y756D02*
D03*
Y678D02*
D03*
Y599D02*
D03*
Y520D02*
D03*
Y442D02*
D03*
Y363D02*
D03*
Y284D02*
D03*
X286D02*
D03*
Y363D02*
D03*
Y442D02*
D03*
Y520D02*
D03*
Y599D02*
D03*
Y678D02*
D03*
Y756D02*
D03*
Y835D02*
D03*
D18*
X0Y0D02*
X1220D01*
X0D02*
Y1004D01*
X1220D01*
Y0D02*
Y1004D01*
X45Y41D02*
Y101D01*
X75D01*
X85Y91D01*
Y71D01*
X75Y61D01*
X45D01*
X105Y101D02*
X125D01*
X115D01*
Y41D01*
X105D01*
X125D01*
X195Y91D02*
X185Y101D01*
X165D01*
X155Y91D01*
Y81D01*
X165Y71D01*
X185D01*
X195Y61D01*
Y51D01*
X185Y41D01*
X165D01*
X155Y51D01*
X255Y91D02*
X245Y101D01*
X225D01*
X215Y91D01*
Y51D01*
X225Y41D01*
X245D01*
X255Y51D01*
X275Y101D02*
X295D01*
X285D01*
Y41D01*
X275D01*
X295D01*
X365Y91D02*
X355Y101D01*
X335D01*
X325Y91D01*
Y51D01*
X335Y41D01*
X355D01*
X365Y51D01*
X385Y101D02*
Y51D01*
X395Y41D01*
X415D01*
X425Y51D01*
Y101D01*
X445D02*
Y41D01*
X485D01*
X505Y101D02*
X545D01*
X525D01*
Y41D01*
X565Y101D02*
Y51D01*
X575Y41D01*
X595D01*
X605Y51D01*
Y101D01*
X625Y41D02*
Y101D01*
X655D01*
X665Y91D01*
Y71D01*
X655Y61D01*
X625D01*
X645D02*
X665Y41D01*
X685D02*
Y81D01*
X705Y101D01*
X725Y81D01*
Y41D01*
Y71D01*
X685D01*
X49Y890D02*
X69D01*
X59D01*
Y950D01*
X49Y940D01*
X69Y790D02*
X29D01*
X69Y830D01*
Y840D01*
X59Y850D01*
X39D01*
X29Y840D01*
Y740D02*
X39Y750D01*
X59D01*
X69Y740D01*
Y730D01*
X59Y720D01*
X49D01*
X59D01*
X69Y710D01*
Y700D01*
X59Y690D01*
X39D01*
X29Y700D01*
X59Y590D02*
Y650D01*
X29Y620D01*
X69D01*
Y550D02*
X29D01*
Y520D01*
X49Y530D01*
X59D01*
X69Y520D01*
Y500D01*
X59Y490D01*
X39D01*
X29Y500D01*
X69Y450D02*
X49Y440D01*
X29Y420D01*
Y400D01*
X39Y390D01*
X59D01*
X69Y400D01*
Y410D01*
X59Y420D01*
X29D01*
Y355D02*
X69D01*
Y345D01*
X29Y305D01*
Y295D01*
Y240D02*
X39Y250D01*
X59D01*
X69Y240D01*
Y230D01*
X59Y220D01*
X69Y210D01*
Y200D01*
X59Y190D01*
X39D01*
X29Y200D01*
Y210D01*
X39Y220D01*
X29Y230D01*
Y240D01*
X39Y220D02*
X59D01*
X1109Y290D02*
X1129D01*
X1119D01*
Y350D01*
X1109Y340D01*
X1159D02*
X1169Y350D01*
X1189D01*
X1199Y340D01*
Y300D01*
X1189Y290D01*
X1169D01*
X1159Y300D01*
Y340D01*
X1109Y390D02*
X1129D01*
X1119D01*
Y450D01*
X1109Y440D01*
X1159Y390D02*
X1179D01*
X1169D01*
Y450D01*
X1159Y440D01*
X1109Y490D02*
X1129D01*
X1119D01*
Y550D01*
X1109Y540D01*
X1199Y490D02*
X1159D01*
X1199Y530D01*
Y540D01*
X1189Y550D01*
X1169D01*
X1159Y540D01*
X1109Y590D02*
X1129D01*
X1119D01*
Y650D01*
X1109Y640D01*
X1159D02*
X1169Y650D01*
X1189D01*
X1199Y640D01*
Y630D01*
X1189Y620D01*
X1179D01*
X1189D01*
X1199Y610D01*
Y600D01*
X1189Y590D01*
X1169D01*
X1159Y600D01*
X1109Y690D02*
X1129D01*
X1119D01*
Y750D01*
X1109Y740D01*
X1189Y690D02*
Y750D01*
X1159Y720D01*
X1199D01*
X1109Y790D02*
X1129D01*
X1119D01*
Y850D01*
X1109Y840D01*
X1199Y850D02*
X1159D01*
Y820D01*
X1179Y830D01*
X1189D01*
X1199Y820D01*
Y800D01*
X1189Y790D01*
X1169D01*
X1159Y800D01*
X1109Y890D02*
X1129D01*
X1119D01*
Y950D01*
X1109Y940D01*
X1199Y950D02*
X1179Y940D01*
X1159Y920D01*
Y900D01*
X1169Y890D01*
X1189D01*
X1199Y900D01*
Y910D01*
X1189Y920D01*
X1159D01*
X1120Y210D02*
X1160D01*
X1180Y190D01*
X1160Y170D01*
X1120D01*
X1150D01*
Y210D01*
X1120Y150D02*
X1180D01*
X1120Y110D01*
X1180D01*
Y90D02*
Y50D01*
Y70D01*
X1120D01*
X421Y915D02*
Y975D01*
X451D01*
X461Y965D01*
Y945D01*
X451Y935D01*
X421D01*
X441D02*
X461Y915D01*
X521Y975D02*
X481D01*
Y945D01*
X501D01*
X481D01*
Y915D01*
X541D02*
Y975D01*
X561Y955D01*
X581Y975D01*
Y915D01*
X601Y925D02*
X611Y915D01*
X631D01*
X641Y925D01*
Y965D01*
X631Y975D01*
X611D01*
X601Y965D01*
Y955D01*
X611Y945D01*
X641D01*
X701Y975D02*
X661D01*
Y945D01*
X681Y955D01*
X691D01*
X701Y945D01*
Y925D01*
X691Y915D01*
X671D01*
X661Y925D01*
X721Y975D02*
Y915D01*
X741Y935D01*
X760Y915D01*
Y975D01*
D19*
X820Y138D02*
X828Y130D01*
X208Y220D02*
X290Y138D01*
X820D01*
X147Y332D02*
X196D01*
X209Y345D02*
X269D01*
X196Y332D02*
X209Y345D01*
X139Y325D02*
X147Y332D01*
X185Y611D02*
X198Y599D01*
X255Y284D02*
X286D01*
X237Y266D02*
X255Y284D01*
X269Y345D02*
X286Y363D01*
X255Y442D02*
X286D01*
X233Y420D02*
X255Y442D01*
X286Y520D02*
X286Y520D01*
X273Y849D02*
X286Y835D01*
X893Y284D02*
X922D01*
X893Y363D02*
X906Y350D01*
X893Y520D02*
X893Y520D01*
X893Y756D02*
X905Y769D01*
X893Y835D02*
X910Y853D01*
X979Y339D02*
X1001D01*
X978Y338D02*
X979Y339D01*
X968Y350D02*
X979Y339D01*
X981Y599D02*
X993Y611D01*
X1039Y520D02*
X1039Y520D01*
X1031Y611D02*
X1039Y620D01*
X1031Y820D02*
X1039D01*
X1031Y920D02*
X1039D01*
X237Y248D02*
Y266D01*
X978Y258D02*
Y338D01*
X1051Y130D02*
Y186D01*
X150Y720D02*
X192Y678D01*
X139Y220D02*
X208D01*
X139Y420D02*
X233D01*
X140Y520D02*
X286D01*
X139Y520D02*
X140Y520D01*
X198Y599D02*
X286D01*
X148Y611D02*
X185D01*
X139Y620D02*
X148Y611D01*
X192Y678D02*
X286D01*
X203Y756D02*
X286D01*
X211Y849D02*
X273D01*
X139Y920D02*
X139D01*
X922Y284D02*
X939Y266D01*
X906Y350D02*
X968D01*
X910Y853D02*
X965D01*
X998Y442D02*
X1020Y420D01*
X1039D01*
X993Y611D02*
X1031D01*
X208Y220D02*
X237Y248D01*
X139Y820D02*
X203Y756D01*
X139Y720D02*
X150D01*
X139Y920D02*
X211Y849D01*
X939Y80D02*
Y266D01*
X1020Y320D02*
X1039D01*
X1001Y339D02*
X1020Y320D01*
X1029Y720D02*
X1039D01*
X893Y442D02*
X998D01*
X893Y520D02*
X1039D01*
X893Y599D02*
X981D01*
X893Y678D02*
X987D01*
X905Y769D02*
X981D01*
X978Y258D02*
X1051Y186D01*
X965Y853D02*
X1031Y920D01*
X981Y769D02*
X1031Y820D01*
X987Y678D02*
X1029Y720D01*
D20*
X139Y920D02*
D03*
Y620D02*
D03*
Y325D02*
D03*
Y420D02*
D03*
Y720D02*
D03*
Y520D02*
D03*
Y220D02*
D03*
Y820D02*
D03*
X1039Y920D02*
D03*
Y320D02*
D03*
Y820D02*
D03*
Y720D02*
D03*
Y620D02*
D03*
Y520D02*
D03*
Y420D02*
D03*
D21*
X939Y78D02*
D03*
M02*
