G04*
G04 #@! TF.GenerationSoftware,Altium Limited,Altium Designer,20.1.14 (287)*
G04*
G04 Layer_Color=2752767*
%FSLAX23Y23*%
%MOIN*%
G70*
G04*
G04 #@! TF.SameCoordinates,8A41C755-1FF9-433D-9844-E7126158F4D2*
G04*
G04*
G04 #@! TF.FilePolarity,Positive*
G04*
G01*
G75*
%ADD23C,0.002*%
D23*
X131Y912D02*
Y928D01*
X147D01*
Y912D01*
X131D01*
X931Y70D02*
Y86D01*
X947D01*
Y70D01*
X931D01*
X131Y612D02*
Y628D01*
X147D01*
Y612D01*
X131D01*
Y317D02*
Y333D01*
X147D01*
Y317D01*
X131D01*
Y412D02*
Y428D01*
X147D01*
Y412D01*
X131D01*
Y712D02*
Y728D01*
X147D01*
Y712D01*
X131D01*
Y512D02*
Y528D01*
X147D01*
Y512D01*
X131D01*
Y212D02*
Y228D01*
X147D01*
Y212D01*
X131D01*
Y812D02*
Y828D01*
X147D01*
Y812D01*
X131D01*
X1031Y912D02*
Y928D01*
X1047D01*
Y912D01*
X1031D01*
Y312D02*
Y328D01*
X1047D01*
Y312D01*
X1031D01*
Y812D02*
Y828D01*
X1047D01*
Y812D01*
X1031D01*
Y712D02*
Y728D01*
X1047D01*
Y712D01*
X1031D01*
Y612D02*
Y628D01*
X1047D01*
Y612D01*
X1031D01*
Y512D02*
Y528D01*
X1047D01*
Y512D01*
X1031D01*
Y412D02*
Y428D01*
X1047D01*
Y412D01*
X1031D01*
M02*
