G04*
G04 #@! TF.GenerationSoftware,Altium Limited,Altium Designer,20.1.14 (287)*
G04*
G04 Layer_Color=128*
%FSLAX23Y23*%
%MOIN*%
G70*
G04*
G04 #@! TF.SameCoordinates,8A41C755-1FF9-433D-9844-E7126158F4D2*
G04*
G04*
G04 #@! TF.FilePolarity,Positive*
G04*
G01*
G75*
%ADD23C,0.002*%
D23*
X123Y920D02*
X156D01*
X139Y903D02*
Y936D01*
X923Y78D02*
X956D01*
X939Y61D02*
Y95D01*
X123Y620D02*
X156D01*
X139Y603D02*
Y636D01*
X123Y325D02*
X156D01*
X139Y308D02*
Y341D01*
X123Y420D02*
X156D01*
X139Y403D02*
Y436D01*
X123Y720D02*
X156D01*
X139Y703D02*
Y736D01*
X123Y520D02*
X156D01*
X139Y503D02*
Y536D01*
X123Y220D02*
X156D01*
X139Y203D02*
Y236D01*
X123Y820D02*
X156D01*
X139Y803D02*
Y836D01*
X1023Y920D02*
X1056D01*
X1039Y903D02*
Y936D01*
X1023Y320D02*
X1056D01*
X1039Y303D02*
Y336D01*
X1023Y820D02*
X1056D01*
X1039Y803D02*
Y836D01*
X1023Y720D02*
X1056D01*
X1039Y703D02*
Y736D01*
X1023Y620D02*
X1056D01*
X1039Y603D02*
Y636D01*
X1023Y520D02*
X1056D01*
X1039Y503D02*
Y536D01*
X1023Y420D02*
X1056D01*
X1039Y403D02*
Y436D01*
M02*
